<?xml version="1.0" encoding="UTF-8"?>
<svg width="29px" height="25px" viewBox="0 0 29 25" version="1.1" xmlns="http://www.w3.org/2000/svg" xmlns:xlink="http://www.w3.org/1999/xlink">
    <g id="Page-1" stroke="none" stroke-width="1" fill="none" fill-rule="evenodd">
        <g id="Artboard" transform="translate(-1077.000000, -2585.000000)" fill="#FEFEFE">
            <g id="ic_administration_systems" transform="translate(1076.995500, 2585.971700)">
                <path d="M9.253,9.87 C9.592,9.87 9.87,10.148 9.87,10.487 C9.87,10.826 9.592,11.104 9.253,11.104 C8.914,11.104 8.636,10.826 8.636,10.487 C8.636,10.148 8.914,9.87 9.253,9.87 M9.253,12.646 C10.456,12.646 11.412,11.69 11.412,10.487 C11.412,9.284 10.456,8.328 9.253,8.328 C8.05,8.328 7.094,9.284 7.094,10.487 C7.094,11.659 8.081,12.646 9.253,12.646 M21.59,10.487 C21.59,10.919 21.251,11.258 20.819,11.258 L13.324,11.258 C12.892,11.258 12.553,10.919 12.553,10.487 C12.553,10.055 12.892,9.716 13.324,9.716 L20.819,9.716 C21.251,9.716 21.59,10.055 21.59,10.487 M19.431,15.052 C19.092,15.052 18.814,14.774 18.814,14.435 C18.814,14.095 19.092,13.818 19.431,13.818 C19.77,13.818 20.048,14.095 20.048,14.435 C20.048,14.774 19.77,15.052 19.431,15.052 M19.431,12.276 C18.228,12.276 17.272,13.232 17.272,14.435 C17.272,15.638 18.228,16.594 19.431,16.594 C20.634,16.594 21.59,15.638 21.59,14.435 C21.59,13.232 20.603,12.276 19.431,12.276 M7.094,14.435 C7.094,14.003 7.433,13.664 7.865,13.664 L15.267,13.664 C15.699,13.664 16.038,14.003 16.038,14.435 C16.038,14.867 15.699,15.206 15.267,15.206 L7.865,15.206 C7.433,15.206 7.094,14.836 7.094,14.435 M9.253,18.969 C8.914,18.969 8.636,18.691 8.636,18.352 C8.636,18.012 8.914,17.735 9.253,17.735 C9.592,17.735 9.87,18.012 9.87,18.352 C9.87,18.691 9.592,18.969 9.253,18.969 M9.253,16.193 C8.05,16.193 7.094,17.149 7.094,18.352 C7.094,19.555 8.05,20.511 9.253,20.511 C10.456,20.511 11.412,19.555 11.412,18.352 C11.412,17.149 10.456,16.193 9.253,16.193 M21.59,18.352 C21.59,18.784 21.251,19.123 20.819,19.123 L13.324,19.123 C12.892,19.123 12.553,18.784 12.553,18.352 C12.553,17.92 12.892,17.581 13.324,17.581 L20.819,17.581 C21.251,17.581 21.59,17.92 21.59,18.352 M2.591,3.455 C2.591,2.93 3.023,2.529 3.516,2.529 C4.01,2.529 4.442,2.961 4.442,3.455 C4.442,3.979 4.01,4.38 3.516,4.38 C3.023,4.38 2.591,3.979 2.591,3.455 M8.76,3.455 C8.76,2.93 9.191,2.529 9.685,2.529 C10.178,2.529 10.61,2.961 10.61,3.455 C10.61,3.979 10.178,4.38 9.685,4.38 C9.191,4.38 8.76,3.979 8.76,3.455 M5.675,3.455 C5.675,2.93 6.107,2.529 6.601,2.529 C7.125,2.529 7.526,2.961 7.526,3.455 C7.526,3.979 7.094,4.38 6.601,4.38 C6.107,4.411 5.675,3.979 5.675,3.455 M26.463,21.652 L2.221,21.652 C1.851,21.652 1.542,21.343 1.542,20.973 L1.542,6.94 L27.111,6.94 L27.111,20.973 C27.111,21.374 26.833,21.652 26.463,21.652 M2.221,1.542 L26.432,1.542 C26.802,1.542 27.111,1.851 27.111,2.221 L27.111,5.429 L1.573,5.429 L1.573,2.19 C1.573,1.82 1.851,1.542 2.221,1.542 M26.463,2.27373675e-13 L2.221,2.27373675e-13 C0.987,2.27373675e-13 0,0.987 0,2.221 L0,21.004 C0,22.238 0.987,23.225 2.221,23.225 L26.432,23.225 C27.666,23.225 28.653,22.238 28.653,21.004 L28.653,2.19 C28.653,0.987 27.666,2.27373675e-13 26.463,2.27373675e-13" id="Fill-80"></path>
            </g>
        </g>
    </g>
</svg>
