<?xml version="1.0" encoding="UTF-8"?>
<svg width="42px" height="18px" viewBox="0 0 42 18" version="1.1" xmlns="http://www.w3.org/2000/svg" xmlns:xlink="http://www.w3.org/1999/xlink">
    <g id="Page-1" stroke="none" stroke-width="1" fill="none" fill-rule="evenodd">
        <g id="Artboard" transform="translate(-794.000000, -2396.000000)" fill="#FEFEFE">
            <g id="ic_automotive" transform="translate(794.149900, 2396.400600)">
                <path d="M32.994,10.4195 C31.558,10.4195 30.389,11.5875 30.389,13.0245 C30.389,14.4605 31.558,15.6295 32.994,15.6295 C34.43,15.6295 35.599,14.4605 35.599,13.0245 C35.599,11.5875 34.43,10.4195 32.994,10.4195 M32.994,17.3655 C30.6,17.3655 28.653,15.4175 28.653,13.0245 C28.653,10.6305 30.6,8.6825 32.994,8.6825 C35.388,8.6825 37.335,10.6305 37.335,13.0245 C37.335,15.4175 35.388,17.3655 32.994,17.3655" id="Fill-47"></path>
                <path d="M8.6825,10.4195 C7.2465,10.4195 6.0775,11.5875 6.0775,13.0245 C6.0775,14.4605 7.2465,15.6295 8.6825,15.6295 C10.1185,15.6295 11.2875,14.4605 11.2875,13.0245 C11.2875,11.5875 10.1185,10.4195 8.6825,10.4195 M8.6825,17.3655 C6.2885,17.3655 4.3415,15.4175 4.3415,13.0245 C4.3415,10.6305 6.2885,8.6825 8.6825,8.6825 C11.0765,8.6825 13.0235,10.6305 13.0235,13.0245 C13.0235,15.4175 11.0765,17.3655 8.6825,17.3655" id="Fill-48"></path>
                <path d="M37.248,12.156 L39.94,12.156 L39.94,9.186 C39.035,7.665 37.601,6.971 35.74,6.422 L28.046,5.752 C27.916,5.741 27.782,5.7 27.67,5.633 L24.081,3.501 C22.136,2.347 19.949,1.737 17.758,1.737 L12.836,1.737 L4.079,4.342 C4.039,4.355 3.998,4.364 3.956,4.37 L1.833,4.679 L1.736,5.011 L1.736,10.611 C1.977,11.141 2.386,11.53 2.871,11.688 L4.429,12.156 C4.832,10.177 6.586,8.683 8.683,8.683 C10.779,8.683 12.533,10.177 12.937,12.156 L28.74,12.156 C29.143,10.177 30.898,8.683 32.994,8.683 C35.09,8.683 36.845,10.177 37.248,12.156 M40.808,13.893 L36.467,13.893 C35.988,13.893 35.599,13.504 35.599,13.024 C35.599,11.588 34.43,10.419 32.994,10.419 C31.558,10.419 30.389,11.588 30.389,13.024 C30.389,13.504 30,13.893 29.521,13.893 L12.156,13.893 C11.676,13.893 11.287,13.504 11.287,13.024 C11.287,11.588 10.119,10.419 8.683,10.419 C7.246,10.419 6.078,11.588 6.078,13.024 C6.078,13.504 5.689,13.893 5.209,13.893 L4.175,13.893 C4.084,13.893 3.994,13.878 3.907,13.85 L2.335,13.34 C1.343,13.017 0.527,12.237 0.1,11.2 L0.067,11.122 C0.023,11.016 0,10.902 0,10.787 L0,4.887 C0,4.805 0.011,4.723 0.034,4.644 L0.321,3.658 C0.416,3.332 0.693,3.091 1.03,3.042 L3.644,2.66 L12.462,0.037 C12.542,0.012 12.626,0 12.71,0 L17.758,0 C20.261,0 22.754,0.695 24.967,2.008 L28.392,4.042 L35.976,4.699 C36.033,4.705 36.088,4.715 36.143,4.731 C38.213,5.333 40.304,6.21 41.571,8.541 C41.64,8.669 41.677,8.811 41.677,8.956 L41.677,13.024 C41.677,13.504 41.288,13.893 40.808,13.893" id="Fill-49"></path>
                <path d="M24.3113,6.9464 L12.1553,6.9464 C11.6763,6.9464 11.2873,6.5584 11.2873,6.0784 C11.2873,5.5984 11.6763,5.2094 12.1553,5.2094 L24.3113,5.2094 C24.7903,5.2094 25.1793,5.5984 25.1793,6.0784 C25.1793,6.5584 24.7903,6.9464 24.3113,6.9464" id="Fill-50"></path>
            </g>
        </g>
    </g>
</svg>
