<?xml version="1.0" encoding="utf-8"?>
<svg version="1.1" id="Ebene_1" xmlns="http://www.w3.org/2000/svg" xmlns:xlink="http://www.w3.org/1999/xlink" x="0px" y="0px"
	 viewBox="0 0 197.27557 178.88983" style="enable-background:new 0 0 197.27557 178.88983;" xml:space="preserve">
<style type="text/css">
	.st0{fill-rule:evenodd;clip-rule:evenodd;fill:#FFFFFF;}
	.st1{fill:#FFFFFF;}
	.st2{fill:#575756;}
</style>
<path class="st0" d="M124.18008,34.66803l-20.97737,10.54615v4.64045l22.04622-12.23304v-2.95356
	C125.24893,33.95982,124.18008,34.66803,124.18008,34.66803"/>
<path class="st0" d="M124.38847,53.64379l-22.04624,13.78617v5.84895l0.63696-0.4639l20.77232-14.43185
	c0.52644-0.33739,0.63696-0.64714,0.63696-1.29136V53.64379z"/>
<polygon class="st1" points="147.0372,14.54546 99.49963,35.48067 51.96209,14.54546 51.96209,18.17814 99.49963,42.10327 
	147.0372,18.17814 "/>
<polygon class="st0" points="99.49965,58.00316 51.96209,30.04692 51.96209,33.46292 99.49965,63.97863 147.0372,33.46292 
	147.0372,30.04692 "/>
<path class="st0" d="M75.16473,34.68869L96.1421,45.22028v4.63465L74.09587,37.63791V34.6887
	C74.09587,33.93395,75.16473,34.68869,75.16473,34.68869"/>
<path class="st0" d="M74.26746,53.64379l22.04623,13.78617v5.84895l-0.6355-0.4639L74.90441,58.38316
	c-0.55406-0.39555-0.63695-0.64714-0.63695-1.29136V53.64379z"/>
<polygon class="st0" points="99.49965,80.00562 51.96209,47.09915 51.96209,50.73038 99.49965,87.05723 147.0372,50.73038 
	147.0372,47.09915 "/>
<g>
	<path class="st0" d="M30.40767,133.21791c-0.41737,0-0.57734-0.19487-0.57734-0.65004V111.8188
		c0-0.45371,0.15997-0.64859,0.57734-0.64859h5.67734c5.51883,0,7.28137,2.0752,7.28137,4.70155v2.04321
		c0,1.684-0.76783,2.98119-2.69325,3.72721c2.43731,0.68203,3.62542,2.07519,3.62542,3.95551v2.75578
		c0,2.65834-1.764,4.86443-7.28283,4.86443H30.40767z M32.94241,113.79657v6.87272h3.368c2.66126,0,3.94535-1.03687,3.94535-2.81976
		v-1.49059c0-1.78435-1.2841-2.56236-4.17076-2.56236H32.94241z M32.94241,123.13422v7.45589h4.07331
		c2.88666,0,4.17076-1.00488,4.17076-2.78777v-1.97776c0-1.62003-1.2841-2.69035-4.17076-2.69035H32.94241z"/>
	<path class="st0" d="M51.53222,132.56931c0,0.45374-0.11343,0.64861-0.5119,0.64861h-1.73345
		c-0.36792,0-0.51044-0.19487-0.51044-0.64861v-20.7505c0-0.45371,0.14252-0.64859,0.51044-0.64859h1.73345
		c0.39846,0,0.5119,0.19488,0.5119,0.64859V132.56931z"/>
	<path class="st0" d="M69.8617,111.17094c0.42172,0,0.61659,0.16289,0.61659,0.61661v1.4586
		c0,0.45518-0.19487,0.6166-0.61659,0.6166h-5.19745v18.70439c0,0.45517-0.16142,0.65005-0.5846,0.65005h-2.01411
		c-0.42318,0-0.58315-0.19489-0.58315-0.65005v-18.70439h-5.19891c-0.45517,0-0.61804-0.16142-0.61804-0.6166v-1.4586
		c0-0.45372,0.16287-0.61661,0.61804-0.61661H69.8617z"/>
	<path class="st0" d="M76.85107,132.56931c0,0.45374-0.11343,0.64861-0.51044,0.64861h-1.73345
		c-0.36938,0-0.51189-0.19487-0.51189-0.64861v-20.7505c0-0.45371,0.14251-0.64859,0.51189-0.64859h1.73345
		c0.39701,0,0.51044,0.19488,0.51044,0.64859V132.56931z"/>
	<path class="st0" d="M97.00272,132.60188c0,0.42027-0.12943,0.61514-0.58461,0.61514h-1.79598
		c-0.32721,0-0.45808-0.09743-0.58897-0.2923l-7.66673-13.35717c-0.38973-0.68059-0.87981-1.65347-1.17211-2.36604v15.40037
		c0,0.42027-0.16433,0.61514-0.58897,0.61514h-1.82653c-0.42464,0-0.58896-0.19487-0.58896-0.61514v-20.81449
		c0-0.42173,0.16432-0.6166,0.58896-0.6166h1.82653c0.26176,0,0.42464,0.09743,0.52062,0.26031l7.86305,13.64948
		c0.22977,0.38828,0.84927,1.65347,1.01215,2.0752v-15.36838c0-0.42173,0.19632-0.6166,0.62096-0.6166h1.79598
		c0.45518,0,0.58461,0.19487,0.58461,0.6166C97.00273,111.78741,97.00273,132.60188,97.00272,132.60188z"/>
	<path class="st0" d="M115.51298,122.19334c0.41591,0,0.60787,0.16288,0.60787,0.58897v5.7486
		c0,2.67871-1.56477,5.03021-7.06178,5.03021c-5.49557,0-7.06178-2.3515-7.06178-5.03021v-12.67367
		c0-2.68016,1.56621-5.0302,7.06178-5.0302c5.49702,0,7.06178,2.35004,7.06178,5.0302v1.43678
		c0,0.42464-0.15852,0.61951-0.5759,0.61951h-1.8527c-0.44644,0-0.60641-0.19487-0.60641-0.61951v-0.91471
		c0-1.764-1.11977-2.84158-3.99478-2.84158c-2.8765,0-3.96136,1.07758-3.96136,2.84158v11.62807
		c0,1.76546,1.08486,2.84158,3.96136,2.84158c2.84302,0,3.99478-1.04559,3.99478-2.80812v-3.1368h-3.80283
		c-0.41444,0-0.60641-0.16142-0.60641-0.61951v-1.50222c0-0.42609,0.19196-0.58897,0.60641-0.58897H115.51298z"/>
	<path class="st0" d="M128.92744,133.21791c-0.41737,0-0.57735-0.19487-0.57735-0.65004V111.8188
		c0-0.45371,0.15997-0.64859,0.57735-0.64859h5.67732c5.52029,0,7.28284,2.0752,7.28284,4.70155v2.04321
		c0,1.684-0.76784,2.98119-2.69472,3.72721c2.43875,0.68203,3.62543,2.07519,3.62543,3.95551v2.75578
		c0,2.65834-1.76399,4.86443-7.28284,4.86443H128.92744z M131.46072,113.79657v6.87272h3.36945
		c2.66272,0,3.94681-1.03687,3.94681-2.81976v-1.49059c0-1.78435-1.28409-2.56236-4.17221-2.56236H131.46072z M131.46072,123.13422
		v7.45589h4.07475c2.88812,0,4.17078-1.00488,4.17078-2.78777v-1.97776c0-1.62003-1.28265-2.69035-4.17078-2.69035H131.46072z"/>
	<path class="st0" d="M150.39618,132.56931c0,0.45374-0.11198,0.64861-0.51045,0.64861h-1.73489
		c-0.36794,0-0.51044-0.19487-0.51044-0.64861v-20.7505c0-0.45371,0.1425-0.64859,0.51044-0.64859h1.73489
		c0.39847,0,0.51045,0.19488,0.51045,0.64859V132.56931z"/>
	<path class="st0" d="M168.55482,111.17094c0.42172,0,0.61513,0.16289,0.61513,0.61661v1.4586
		c0,0.45518-0.19341,0.6166-0.61513,0.6166h-5.19891v18.70439c0,0.45517-0.16287,0.65005-0.58459,0.65005h-2.01413
		c-0.42317,0-0.58459-0.19489-0.58459-0.65005v-18.70439h-5.20036c-0.45372,0-0.61513-0.16142-0.61513-0.6166v-1.4586
		c0-0.45372,0.16141-0.61661,0.61513-0.61661H168.55482z"/>
</g>
<g>
	<path class="st2" d="M73.35938,146.00116c-3.3291,0-4.02783,1.55957-4.02783,2.86719v6.71973
		c0,1.30762,0.69873,2.86719,4.02783,2.86719c3.32861,0,4.02734-1.55957,4.02734-2.86719v-1.09082
		c0-0.45996-0.3208-0.5293-0.51172-0.5293h-1.00439c-0.34619,0-0.5293,0.18359-0.5293,0.5293v0.81348
		c0,0.56055-0.20361,1.30664-1.96484,1.30664c-1.74561,0-1.94727-0.74609-1.94727-1.30664v-6.16504
		c0-0.56055,0.20166-1.30664,1.94727-1.30664c1.76123,0,1.96484,0.74609,1.96484,1.30664v0.57129
		c0,0.45215,0.28809,0.54688,0.5293,0.54688H76.875c0.2334,0,0.51172-0.09473,0.51172-0.54688v-0.84863
		C77.38672,147.56073,76.68799,146.00116,73.35938,146.00116z"/>
	<path class="st2" d="M83.75098,146.61053c-0.09619-0.3125-0.30029-0.4707-0.60693-0.4707h-1.07422
		c-0.30664,0-0.51074,0.1582-0.60693,0.47168l-3.3584,11.1123c-0.06934,0.20898-0.01758,0.34473,0.03809,0.42188
		c0.05615,0.07812,0.16992,0.1709,0.39453,0.1709h1.00439c0.41553,0,0.52393-0.32617,0.57275-0.47266l0.75439-2.54102h3.35645
		l0.77246,2.54785c0.04688,0.13965,0.15527,0.46582,0.5708,0.46582h1.09131c0.23682,0,0.35498-0.09473,0.41211-0.17383
		c0.05518-0.07715,0.10645-0.21191,0.03906-0.41309L83.75098,146.61053z M82.56543,149.35565
		c0.0957,0.5332,0.20508,1.04785,0.28369,1.30273l0.88965,2.89355h-2.36719l0.90625-2.9248
		C82.37988,150.30975,82.48096,149.82538,82.56543,149.35565z"/>
	<path class="st2" d="M98.29736,146.13983h-1.02197c-0.34863,0-0.45459,0.2041-0.479,0.27832l-2.94531,7.01758
		c-0.05078,0.12598-0.11719,0.30176-0.18457,0.48242c-0.06299-0.18457-0.12646-0.35742-0.19092-0.50488l-2.99561-6.96094
		c-0.0874-0.2041-0.25293-0.3125-0.47852-0.3125h-0.96973c-0.19141,0-0.51221,0.06934-0.51221,0.5293v11.11816
		c0,0.45996,0.3208,0.5293,0.51221,0.5293h0.96973c0.19141,0,0.51221-0.06934,0.51221-0.5293v-6.66699l2.0918,4.94336
		c0.09131,0.21777,0.2417,0.46875,0.6001,0.46875h0.90039c0.19971,0,0.46924-0.08203,0.61816-0.46973l2.0083-4.86719
		c0.01025-0.02441,0.021-0.05078,0.03125-0.07812v6.66992c0,0.45996,0.3208,0.5293,0.51172,0.5293h1.02197
		c0.19092,0,0.51172-0.06934,0.51172-0.5293v-11.11816C98.80908,146.20917,98.48828,146.13983,98.29736,146.13983z"/>
	<path class="st2" d="M105.27539,146.13983h-3.51562c-0.2334,0-0.5127,0.09473-0.5127,0.5459v11.08398
		c0,0.45215,0.2793,0.54688,0.5127,0.54688h1.05566c0.5127,0,0.5127-0.41211,0.5127-0.54688v-3.83496h1.94727
		c3.59375,0,4.13086-1.79688,4.13086-2.86719v-2.06055C109.40625,147.93671,108.86914,146.13983,105.27539,146.13983z
		 M107.32617,149.28339v1.50684c0,0.86719-0.68945,1.30664-2.05078,1.30664h-1.94727v-4.11914h1.94727
		C106.63672,147.97772,107.32617,148.41718,107.32617,149.28339z"/>
	<path class="st2" d="M118.88672,146.13983h-1.05664c-0.2334,0-0.51172,0.09473-0.51172,0.5459v8.625
		c0,0.86719-0.69531,1.30664-2.06836,1.30664c-1.34961,0-2.03418-0.43945-2.03418-1.30664v-8.625
		c0-0.45117-0.27832-0.5459-0.51172-0.5459h-1.05664c-0.33594,0-0.5293,0.19922-0.5293,0.5459v8.90234
		c0,1.07031,0.53711,2.86719,4.13184,2.86719c3.60938,0,4.14844-1.79688,4.14844-2.86719v-8.90234
		C119.39844,146.55096,119.39844,146.13983,118.88672,146.13983z"/>
	<path class="st2" d="M127.40918,151.60858l-3.15234-1.19531c-0.39746-0.15234-0.75391-0.34082-0.75391-0.97363v-0.34668
		c0-0.5918,0.21484-1.27148,1.89551-1.27148c1.67969,0,1.89453,0.67969,1.89453,1.27148v0.53711
		c0,0.35156,0.17285,0.5293,0.5127,0.5293h1.02148c0.19141,0,0.51172-0.06934,0.51172-0.5293v-0.76172
		c0-1.07031-0.51465-2.86719-3.95801-2.86719c-3.41406,0-3.92383,1.79688-3.92383,2.86719v0.9873
		c0,1.16602,0.83789,2.0127,1.66992,2.33398l2.94141,1.13086c0.64453,0.24902,1.31152,0.50586,1.31152,1.22852v0.81348
		c0,0.31445,0,1.27246-2.03418,1.27246c-1.80762,0-2.0166-0.72656-2.0166-1.27246v-0.7793c0-0.45117-0.27832-0.5459-0.51172-0.5459
		h-1.02148c-0.34082,0-0.5293,0.19434-0.5293,0.5459v1.00488c0,0.8623,0.39941,2.86719,4.09668,2.86719
		c3.68262,0,4.08008-2.00488,4.08008-2.86719v-1.4375C129.44336,152.96503,128.77832,152.133,127.40918,151.60858z"/>
</g>
</svg>
