<?xml version="1.0" encoding="UTF-8"?>
<svg width="33px" height="33px" viewBox="0 0 33 33" version="1.1" xmlns="http://www.w3.org/2000/svg" xmlns:xlink="http://www.w3.org/1999/xlink">
    <g id="Page-1" stroke="none" stroke-width="1" fill="none" fill-rule="evenodd">
        <g id="Artboard" transform="translate(-520.000000, -2479.000000)" fill="#FEFEFE">
            <g id="ic_event" transform="translate(520.625100, 2479.565200)">
                <path d="M21.313,4.858 L21.313,3.677 L9.511,3.677 L9.511,2.267 L21.313,2.267 L21.313,0.705 C21.313,0.316 21.629,0 22.018,0 C22.408,0 22.723,0.316 22.723,0.705 L22.723,4.858 L23.375,4.858 C23.764,4.858 24.08,5.174 24.08,5.563 C24.08,5.953 23.764,6.268 23.375,6.268 L20.661,6.268 C20.272,6.268 19.956,5.953 19.956,5.563 C19.956,5.174 20.272,4.858 20.661,4.858 L21.313,4.858 Z M27.353,20.57 L28.35,21.567 L22.955,26.963 L20.273,24.281 L21.27,23.284 L22.955,24.968 L27.353,20.57 Z M23.606,30.32 C19.898,30.32 16.892,27.314 16.892,23.606 C16.892,19.899 19.898,16.893 23.606,16.893 C27.314,16.893 30.32,19.899 30.32,23.606 C30.315,27.312 27.312,30.316 23.606,30.32 L23.606,30.32 Z M4.015,27.852 C2.577,27.85 1.412,26.685 1.41,25.247 L1.41,9.824 L27.852,9.824 L27.852,16.684 C24.031,14.337 19.031,15.531 16.683,19.352 C15.082,21.959 15.082,25.245 16.683,27.852 L4.015,27.852 Z M29.262,17.783 L29.262,6.283 C29.259,4.066 27.463,2.269 25.246,2.267 L24.284,2.267 L24.284,3.677 L25.246,3.677 C26.684,3.679 27.85,4.844 27.852,6.283 L27.852,8.414 L1.41,8.414 L1.41,6.283 C1.412,4.844 2.577,3.679 4.015,3.677 L6.538,3.677 L6.538,4.858 L5.887,4.858 C5.497,4.858 5.181,5.174 5.181,5.563 C5.181,5.953 5.497,6.268 5.887,6.268 L8.6,6.268 C8.99,6.268 9.306,5.953 9.306,5.563 C9.306,5.174 8.99,4.858 8.6,4.858 L7.949,4.858 L7.949,0.705 C7.949,0.316 7.633,0 7.243,0 C6.854,0 6.538,0.316 6.538,0.705 L6.538,2.267 L4.015,2.267 C1.799,2.269 0.002,4.066 0,6.283 L0,25.247 C0.002,27.463 1.799,29.26 4.015,29.262 L17.783,29.262 C20.903,32.482 26.043,32.562 29.262,29.441 C32.481,26.321 32.561,21.181 29.441,17.962 C29.382,17.901 29.322,17.842 29.262,17.783 L29.262,17.783 Z" id="Fill-33"></path>
            </g>
        </g>
    </g>
</svg>
