<?xml version="1.0" encoding="UTF-8"?>
<svg width="37px" height="33px" viewBox="0 0 37 33" version="1.1" xmlns="http://www.w3.org/2000/svg" xmlns:xlink="http://www.w3.org/1999/xlink">
    <g id="Page-1" stroke="none" stroke-width="1" fill="none" fill-rule="evenodd">
        <g id="Artboard" transform="translate(-1073.000000, -2481.000000)" fill="#FEFEFE">
            <g id="ic_finance" transform="translate(1073.403000, 2481.930400)">
                <polygon id="Fill-36" points="27.4762 2.6455 18.8832 9.5915 17.7182 9.5875 16.9172 5.8905 13.4952 5.8905 2.1052 14.7345 3.2322 16.1865 14.1252 7.7285 15.4352 7.7285 16.2342 11.4215 19.5312 11.4305 28.6302 4.0745"></polygon>
                <path d="M5.0687,20.6756 L15.1767,20.6756 L15.1767,23.3136 L15.1767,26.7666 L15.1767,26.8696 L15.1767,29.4056 L5.0687,29.4056 L5.0687,26.8696 L5.0687,26.7666 L5.0687,23.3136 L5.0687,20.6756 Z M4.1497,18.8376 L3.2307,19.7566 L3.2307,23.3136 L3.2307,26.7666 L3.2307,26.8696 L3.2307,30.3246 L4.1497,31.2436 L16.0957,31.2436 L17.0147,30.3246 L17.0147,26.8696 L17.0147,26.7666 L17.0147,23.3136 L17.0147,19.7566 L16.0957,18.8376 L4.1497,18.8376 Z" id="Fill-38"></path>
                <polygon id="Fill-40" points="0 31.2436 35.838 31.2436 35.838 29.4056 0 29.4056"></polygon>
                <polygon id="Fill-42" points="26.6129 2.27373675e-13 25.9539 0.269 25.0799 1.143 26.3799 2.443 26.9809 1.841 29.3809 1.863 29.4019 4.263 28.8009 4.864 30.0999 6.163 30.9739 5.289 31.2429 4.63 31.2089 0.944 30.2989 0.034"></polygon>
                <path d="M20.6759,15.1621 L30.7839,15.1621 L30.7839,18.2631 L30.7839,22.2841 L30.7839,26.1891 L30.7839,26.3041 L30.7839,29.2901 L20.6759,29.2901 L20.6759,26.3041 L20.6759,26.1891 L20.6759,22.2841 L20.6759,18.2631 L20.6759,15.1621 Z M19.7569,13.3241 L18.8379,14.2431 L18.8379,18.2631 L18.8379,22.2841 L18.8379,26.1891 L18.8379,26.3041 L18.8379,30.2091 L19.7569,31.1281 L31.7029,31.1281 L32.6219,30.2091 L32.6219,26.3041 L32.6219,26.1891 L32.6219,22.2841 L32.6219,18.2631 L32.6219,14.2431 L31.7029,13.3241 L19.7569,13.3241 Z" id="Fill-43"></path>
                <polygon id="Fill-44" points="20.288 20.4656 31.171 20.4656 31.171 18.6276 20.288 18.6276"></polygon>
                <polygon id="Fill-45" points="20.166 25.8246 31.293 25.8246 31.293 23.9866 20.166 23.9866"></polygon>
                <polygon id="Fill-46" points="4.085 25.8246 15.213 25.8246 15.213 23.9866 4.085 23.9866"></polygon>
            </g>
        </g>
    </g>
</svg>
