<?xml version="1.0" encoding="UTF-8"?>
<svg width="35px" height="30px" viewBox="0 0 35 30" version="1.1" xmlns="http://www.w3.org/2000/svg" xmlns:xlink="http://www.w3.org/1999/xlink">
    <g id="Page-1" stroke="none" stroke-width="1" fill="none" fill-rule="evenodd">
        <g id="Artboard" transform="translate(-935.000000, -2429.000000)" fill="#FEFEFE">
            <g id="ic_health" transform="translate(935.288500, 2429.773000)">
                <path d="M27.823,18.911 C24.16,22.277 20.298,25.248 16.536,28.515 C11.882,24.456 6.535,20.792 2.476,16.238 C1.783,15.545 1.288,14.752 0.892,13.861 C0.297,12.574 0,11.188 0,9.802 C0,4.356 4.357,1.13686838e-13 9.803,1.13686838e-13 C12.278,1.13686838e-13 14.753,0.99 16.536,2.673 C18.318,0.99 20.694,1.13686838e-13 23.268,1.13686838e-13 C28.615,1.13686838e-13 33.071,4.356 33.071,9.802 L31.288,9.802 C31.288,5.346 27.724,1.782 23.268,1.782 C20.199,1.782 18.417,3.069 16.536,5.247 C14.654,3.069 12.872,1.782 9.803,1.782 C5.347,1.782 1.783,5.346 1.783,9.802 C1.783,10.99 1.981,12.079 2.476,13.168 C2.773,13.861 3.169,14.455 3.763,15.149 C7.327,19.01 12.377,22.673 16.536,26.139 C19.902,23.367 23.367,20.594 26.635,17.624 L27.823,18.911 Z" id="Fill-5"></path>
                <polygon id="Fill-7" points="10.8918 12.2772 15.6448 12.2772 17.8228 16.1392 23.6648 6.1382 25.4468 12.9702 33.8628 12.9702 33.8628 14.6532 24.1598 14.6532 23.0708 10.5942 17.8228 19.6042 14.6538 14.0592 10.8918 14.0592"></polygon>
            </g>
        </g>
    </g>
</svg>
