<?xml version="1.0" encoding="UTF-8"?>
<svg width="29px" height="33px" viewBox="0 0 29 33" version="1.1" xmlns="http://www.w3.org/2000/svg" xmlns:xlink="http://www.w3.org/1999/xlink">
    <g id="Page-1" stroke="none" stroke-width="1" fill="none" fill-rule="evenodd">
        <g id="Artboard" transform="translate(-659.000000, -2426.000000)" fill="#FEFEFE">
            <g id="ic_insurance" transform="translate(659.528115, 2426.312974)">
                <path d="M13.9819847,1.83862586 C13.7939847,1.83862586 13.6059847,1.88562586 13.4349847,1.97862586 C11.3329847,3.15462586 5.14098465,5.65962586 3.13898465,6.44462586 C2.29098465,6.76362586 1.97998465,7.03962586 1.97998465,7.46862586 C1.90198465,8.44762586 1.30198465,16.5016259 3.28098465,21.2126259 C5.55998465,26.6376259 11.7179847,29.1966259 13.5499847,29.8516259 C13.6789847,29.8986259 13.8029847,29.9206259 13.9309847,29.9216259 L13.9369847,29.9216259 C14.0799847,29.9166259 14.2039847,29.8986259 14.3289847,29.8476259 C16.1799847,29.1696259 22.3199847,26.5636259 24.5739847,21.1986259 C26.2819847,17.1286259 26.1059847,10.3456259 25.9469847,7.56062586 C25.8439847,7.02062586 25.4359847,6.59562586 24.8979847,6.47062586 L24.7679847,6.42962586 C22.3089847,5.46062586 16.5709847,3.09762586 14.5279847,1.97862586 C14.3569847,1.88562586 14.1699847,1.83862586 13.9819847,1.83862586 M13.9489847,31.7586259 L13.9209847,31.7586259 C13.5809847,31.7576259 13.2449847,31.6966259 12.9249847,31.5796259 C10.9209847,30.8636259 4.15698465,28.0426259 1.58698465,21.9236259 C-0.562015348,16.8096259 0.0669846517,8.34062586 0.145984652,7.39262586 C0.142984652,5.60762586 1.90198465,4.94662586 2.47998465,4.72862586 C4.94898465,3.76262586 10.6749847,1.41662586 12.5449847,0.370625858 C13.4489847,-0.123374142 14.5179847,-0.122374142 15.4109847,0.366625858 C17.3419847,1.42462586 23.0199847,3.76462586 25.3839847,4.69762586 C26.6309847,5.01562586 27.5629847,6.03262586 27.7679847,7.30862586 L27.7779847,7.40062586 C27.9469847,10.2806259 28.1359847,17.4606259 26.2679847,21.9106259 C23.7269847,27.9606259 16.9879847,30.8306259 14.9839847,31.5656259 C14.6659847,31.6916259 14.3109847,31.7586259 13.9489847,31.7586259" id="Fill-1"></path>
                <path d="M12.5553847,19.9360259 L12.5553847,19.9360259 C12.3593847,19.9180259 12.1803847,19.8180259 12.0613847,19.6620259 L9.31838465,16.0000259 C9.09138465,15.6970259 9.15238465,15.2670259 9.45538465,15.0390259 C9.76038465,14.8200259 10.1843847,14.8800259 10.4153847,15.1770259 L12.6923847,18.2220259 L19.4133847,11.8990259 C19.6803847,11.6300259 20.1143847,11.6280259 20.3833847,11.8950259 C20.3843847,11.8960259 20.3853847,11.8970259 20.3873847,11.8990259 C20.6523847,12.1580259 20.6563847,12.5840259 20.3963847,12.8490259 C20.3933847,12.8520259 20.3903847,12.8550259 20.3873847,12.8590259 L13.0623847,19.7170259 C12.9313847,19.8560259 12.7473847,19.9360259 12.5553847,19.9360259" id="Fill-3"></path>
            </g>
        </g>
    </g>
</svg>
