<?xml version="1.0" encoding="UTF-8"?>
<svg width="35px" height="29px" viewBox="0 0 35 29" version="1.1" xmlns="http://www.w3.org/2000/svg" xmlns:xlink="http://www.w3.org/1999/xlink">
    <g id="Page-1" stroke="none" stroke-width="1" fill="none" fill-rule="evenodd">
        <g id="Artboard" transform="translate(-796.000000, -2479.000000)" fill="#FEFEFE">
            <g id="ic_legal" transform="translate(796.251200, 2479.408200)">
                <path d="M18.164,13.497 L19.559,12.102 L23.408,8.253 L19.155,4 L10.062,13.093 L14.315,17.346 L18.164,13.497 Z M19.559,14.892 L15.71,18.741 L16.92,19.951 L15.525,21.346 L14.315,20.136 L7.272,13.093 L6.062,11.883 L7.457,10.488 L8.667,11.698 L17.76,2.605 L16.55,1.395 L17.945,2.27373675e-13 L19.155,1.21 L26.198,8.253 L27.408,9.463 L26.013,10.858 L24.803,9.648 L20.954,13.497 L33.863,26.406 L32.468,27.801 L19.559,14.892 Z M0,27.232 L16.277,27.232 L16.277,25.987 L0,25.987 L0,27.232 Z" id="Fill-31"></path>
            </g>
        </g>
    </g>
</svg>
