<?xml version="1.0" encoding="UTF-8"?>
<svg width="29px" height="38px" viewBox="0 0 29 38" version="1.1" xmlns="http://www.w3.org/2000/svg" xmlns:xlink="http://www.w3.org/1999/xlink">
    <g id="Page-1" stroke="none" stroke-width="1" fill="none" fill-rule="evenodd">
        <g id="Artboard" transform="translate(-522.000000, -2381.000000)" fill="#FEFEFE">
            <g id="ic_life_sciences" transform="translate(522.167900, 2380.999571)">
                <path d="M11.7179,4.35572936 C12.9439,5.10572936 13.5289,6.42772936 13.7739,7.17672936 C12.2759,7.48372936 11.0169,7.32172936 10.0239,6.69372936 C8.8349,5.94072936 8.2769,4.67272936 8.0449,3.95372936 C9.5019,3.61972936 10.7349,3.75472936 11.7179,4.35572936 Z M9.3549,7.72372936 C10.2589,8.28772936 11.3069,8.57772936 12.3719,8.55772936 C13.1579,8.54872936 13.9379,8.43472936 14.6929,8.21872936 C14.9989,8.13472936 15.1909,7.83072936 15.1349,7.51872936 C15.1149,7.40372936 14.6089,4.69172936 12.3689,3.31472936 C10.9479,2.43972936 9.1809,2.30972936 7.1189,2.92872936 C6.8219,3.01772936 6.6379,3.31472936 6.6899,3.61972936 C6.7079,3.72972936 7.1739,6.33572936 9.3549,7.72372936 L9.3549,7.72372936 Z" id="Fill-51"></path>
                <path d="M4.4329,27.1621294 C4.6739,27.1621294 4.9149,27.2571294 5.0959,27.4451294 C6.2519,28.6511294 8.6819,28.6261294 10.5779,28.0681294 C11.2019,27.8841294 11.8359,27.6491294 12.4509,27.4221294 C13.6789,26.9171294 14.9929,26.5411294 16.3309,26.3151294 C18.7049,25.9951294 20.6669,26.1561294 22.1889,26.7861294 C22.1079,23.1131294 19.8489,20.0241294 16.2509,18.6931294 L15.6509,18.4711294 L15.6509,12.3221294 L10.6249,12.3221294 L10.6249,18.4711294 L10.0249,18.6931294 C6.3609,20.0471294 4.0849,23.2261294 4.0849,26.9891294 C4.0849,27.0701294 4.0849,27.1501294 4.0859,27.2301294 C4.1979,27.1851294 4.3149,27.1621294 4.4329,27.1621294 L4.4329,27.1621294 Z M4.3439,29.2211294 C5.3059,33.1521294 8.8389,36.0891294 13.0629,36.1251294 C13.0879,36.1251294 13.1139,36.1251294 13.1399,36.1251294 C17.6059,36.1251294 21.3389,32.8671294 22.0639,28.5891294 C21.9029,28.6101294 21.7319,28.5911294 21.5729,28.5201294 C20.3469,27.9851294 18.6779,27.8531294 16.6059,28.1321294 C15.4339,28.3301294 14.2519,28.6681294 13.1229,29.1321294 C12.4449,29.3831294 11.7799,29.6291294 11.0979,29.8301294 C8.9729,30.4571294 6.1949,30.5801294 4.3439,29.2211294 L4.3439,29.2211294 Z M13.1399,37.9631294 C13.1089,37.9631294 13.0779,37.9631294 13.0469,37.9621294 C7.0419,37.9121294 2.1969,32.9861294 2.2479,26.9811294 C2.2479,22.6471294 4.7369,18.9541294 8.7879,17.2091294 L8.7879,13.4171294 C8.1409,13.2551294 7.6609,12.6691294 7.6609,11.9731294 C7.6609,11.1521294 8.3279,10.4841294 9.1489,10.4841294 L17.1269,10.4841294 C17.9479,10.4841294 18.6159,11.1521294 18.6159,11.9731294 C18.6159,12.6691294 18.1359,13.2551294 17.4889,13.4171294 L17.4889,17.2101294 C21.5389,18.9551294 24.0289,22.6481294 24.0289,26.9891294 L24.0289,27.1561294 C23.9779,33.1371294 19.1019,37.9621294 13.1399,37.9631294 L13.1399,37.9631294 Z" id="Fill-52"></path>
                <path d="M26.935,9.47552936 C26.62,9.47552936 26.365,9.22052936 26.365,8.90552936 C26.365,8.59152936 26.62,8.33552936 26.935,8.33552936 C27.25,8.33552936 27.505,8.59152936 27.505,8.90552936 C27.504,9.22052936 27.25,9.47552936 26.935,9.47552936 M26.935,7.19652936 C25.991,7.19652936 25.226,7.96152936 25.226,8.90552936 C25.226,9.84952936 25.991,10.6155294 26.935,10.6155294 C27.879,10.6155294 28.644,9.84952936 28.644,8.90552936 C28.643,7.96252936 27.879,7.19752936 26.935,7.19652936" id="Fill-53"></path>
                <path d="M22.723,12.2580294 C21.882,12.2580294 21.197,12.9420294 21.197,13.7840294 C21.197,14.6250294 21.882,15.3100294 22.723,15.3100294 C23.565,15.3100294 24.249,14.6250294 24.249,13.7840294 C24.249,12.9440294 23.564,12.2590294 22.723,12.2580294 M22.723,17.1470294 C20.868,17.1470294 19.36,15.6380294 19.36,13.7840294 C19.36,11.9290294 20.868,10.4200294 22.723,10.4200294 L22.724,10.4200294 C24.576,10.4220294 26.085,11.9300294 26.087,13.7820294 C26.087,15.6380294 24.578,17.1470294 22.723,17.1470294" id="Fill-54"></path>
                <path d="M4.1516,8.38082936 C3.8366,8.38082936 3.5816,8.12582936 3.5816,7.81082936 C3.5816,7.49682936 3.8366,7.24082936 4.1516,7.24082936 C4.4666,7.24082936 4.7216,7.49682936 4.7216,7.81082936 C4.7206,8.12582936 4.4666,8.38082936 4.1516,8.38082936 M4.1516,6.10182936 C3.2076,6.10182936 2.4426,6.86682936 2.4426,7.81082936 C2.4426,8.75482936 3.2076,9.52082936 4.1516,9.52082936 C5.0956,9.52082936 5.8606,8.75482936 5.8606,7.81082936 C5.8596,6.86782936 5.0956,6.10282936 4.1516,6.10182936" id="Fill-55"></path>
                <path d="M3.363,12.8466294 C2.522,12.8466294 1.837,13.5316294 1.837,14.3726294 C1.837,15.2136294 2.522,15.8986294 3.363,15.8986294 C4.205,15.8986294 4.889,15.2136294 4.889,14.3726294 C4.889,13.5326294 4.204,12.8486294 3.363,12.8466294 M3.363,17.7356294 C1.508,17.7356294 0,16.2266294 0,14.3726294 C0,12.5176294 1.508,11.0086294 3.363,11.0086294 L3.364,11.0086294 C5.216,11.0106294 6.725,12.5196294 6.727,14.3716294 C6.727,16.2266294 5.218,17.7356294 3.363,17.7356294" id="Fill-56"></path>
                <path d="M14.9699,10.8263294 C14.9699,10.8093294 14.9719,10.7933294 14.9709,10.7763294 C14.9589,10.6243294 14.7359,7.01832936 20.3299,4.50832936 C20.6169,4.37932936 20.7449,4.04232936 20.6159,3.75532936 C20.4869,3.46832936 20.1499,3.34032936 19.8629,3.46932936 C18.5099,4.04732936 17.2659,4.85332936 16.1849,5.85032936 C15.8689,4.28132936 16.6819,2.70332936 18.1429,2.05032936 C19.0539,1.61432936 20.0849,1.56732936 21.1759,1.51732936 C21.9359,1.50432936 22.6939,1.42632936 23.4409,1.28332936 C23.5649,2.17632936 23.6429,3.95132936 22.6649,5.34532936 C21.8319,6.53232936 20.3839,7.22732936 18.3629,7.41032936 C18.0489,7.43832936 17.8179,7.71532936 17.8459,8.02832936 C17.8729,8.32232936 18.1189,8.54632936 18.4129,8.54732936 C18.4309,8.54732936 18.4479,8.54632936 18.4649,8.54432936 C20.8409,8.32932936 22.5689,7.47132936 23.6029,5.99232936 C25.2629,3.61732936 24.4729,0.552329359 24.4389,0.423329359 C24.3579,0.119329359 24.0459,-0.0616706411 23.7419,0.0193293589 C23.7299,0.0223293589 23.7179,0.0263293589 23.7069,0.0293293589 C22.8659,0.264329359 21.9969,0.382329359 21.1239,0.379329359 C19.9669,0.432329359 18.7709,0.486329359 17.6509,1.02232936 C15.4569,2.00532936 14.4109,4.52932936 15.2649,6.77732936 C15.2739,6.79632936 15.2829,6.81532936 15.2929,6.83332936 C13.7979,8.75832936 13.8129,10.4943294 13.8319,10.8263294 L9.8399,10.8263294" id="Fill-57"></path>
            </g>
        </g>
    </g>
</svg>
