<?xml version="1.0" encoding="UTF-8"?>
<svg width="35px" height="35px" viewBox="0 0 35 35" version="1.1" xmlns="http://www.w3.org/2000/svg" xmlns:xlink="http://www.w3.org/1999/xlink">
    <g id="Page-1" stroke="none" stroke-width="1" fill="none" fill-rule="evenodd">
        <g id="Artboard" transform="translate(-933.000000, -2534.000000)" fill="#FEFEFE">
            <g id="ic_management_systems" transform="translate(933.450800, 2534.215000)">
                <path d="M16.9315,1.426 C17.6085,1.426 18.1435,1.961 18.1435,2.638 C18.1435,3.315 17.6085,3.85 16.9315,3.85 C16.2545,3.85 15.7195,3.315 15.7195,2.638 C15.7195,1.961 16.2545,1.426 16.9315,1.426 M16.2185,5.169 L16.2185,7.486 C16.2185,7.878 16.5395,8.198 16.9315,8.198 C17.3235,8.198 17.6445,7.878 17.6445,7.486 L17.6445,5.169 C18.7495,4.848 19.5695,3.85 19.5695,2.638 C19.5695,1.176 18.3925,-2.27373675e-13 16.9315,-2.27373675e-13 C15.4705,-2.27373675e-13 14.2935,1.176 14.2935,2.638 C14.2935,3.85 15.1135,4.848 16.2185,5.169" id="Fill-12"></path>
                <path d="M5.6321,6.8083 C5.6321,6.1313 6.1671,5.5963 6.8441,5.5963 C7.5211,5.5963 8.0561,6.1313 8.0561,6.8083 C8.0561,7.4853 7.5211,8.0203 6.8441,8.0203 C6.1671,8.0203 5.6321,7.4853 5.6321,6.8083 L5.6321,6.8083 Z M9.1251,8.0913 C9.3391,7.6993 9.4821,7.2713 9.4821,6.8083 C9.4821,5.3473 8.3051,4.1703 6.8441,4.1703 C5.3821,4.1703 4.2061,5.3473 4.2061,6.8083 C4.2061,8.2693 5.3821,9.4463 6.8441,9.4463 C7.3071,9.4463 7.7351,9.3033 8.1271,9.0893 L9.7671,10.7293 C9.9091,10.8713 10.0881,10.9433 10.2661,10.9433 C10.4441,10.9433 10.6221,10.8713 10.7651,10.7293 C11.0501,10.4443 11.0501,9.9803 10.7651,9.7313 L9.1251,8.0913 Z" id="Fill-14"></path>
                <path d="M2.638,18.1433 C1.961,18.1433 1.426,17.6083 1.426,16.9313 C1.426,16.2543 1.961,15.7193 2.638,15.7193 C3.315,15.7193 3.85,16.2543 3.85,16.9313 C3.85,17.6083 3.315,18.1433 2.638,18.1433 M5.169,17.6443 L7.486,17.6443 C7.878,17.6443 8.199,17.3233 8.199,16.9313 C8.199,16.5393 7.878,16.2183 7.486,16.2183 L5.169,16.2183 C4.848,15.1133 3.85,14.2933 2.638,14.2933 C1.177,14.2933 0,15.4703 0,16.9313 C0,18.3933 1.177,19.5693 2.638,19.5693 C3.85,19.5693 4.848,18.7493 5.169,17.6443" id="Fill-16"></path>
                <path d="M6.8084,28.2308 C6.1314,28.2308 5.5964,27.6958 5.5964,27.0188 C5.5964,26.3418 6.1314,25.8068 6.8084,25.8068 C7.4854,25.8068 8.0204,26.3418 8.0204,27.0188 C8.0204,27.6958 7.4854,28.2308 6.8084,28.2308 M9.7314,23.1338 L8.0914,24.7728 C7.6994,24.5598 7.2714,24.4168 6.8084,24.4168 C5.3474,24.4168 4.1704,25.5928 4.1704,27.0548 C4.1704,28.5158 5.3474,29.6918 6.8084,29.6918 C8.2694,29.6918 9.4464,28.5158 9.4464,27.0548 C9.4464,26.5908 9.3034,26.1638 9.0894,25.7718 L10.7294,24.1318 C11.0144,23.8468 11.0144,23.3828 10.7294,23.1338 C10.4794,22.8488 10.0164,22.8488 9.7314,23.1338" id="Fill-18"></path>
                <path d="M16.9315,32.4368 C16.2545,32.4368 15.7195,31.9018 15.7195,31.2248 C15.7195,30.5478 16.2545,30.0128 16.9315,30.0128 C17.6085,30.0128 18.1435,30.5478 18.1435,31.2248 C18.1435,31.9018 17.6085,32.4368 16.9315,32.4368 M17.6445,28.6938 L17.6445,26.3768 C17.6445,25.9848 17.3235,25.6648 16.9315,25.6648 C16.5395,25.6648 16.2185,25.9848 16.2185,26.3768 L16.2185,28.6938 C15.1135,29.0148 14.2935,30.0128 14.2935,31.2248 C14.2935,32.6868 15.4705,33.8628 16.9315,33.8628 C18.3925,33.8628 19.5695,32.6868 19.5695,31.2248 C19.5695,30.0128 18.7495,29.0148 17.6445,28.6938" id="Fill-20"></path>
                <path d="M27.0545,28.2308 C26.3775,28.2308 25.8425,27.6958 25.8425,27.0188 C25.8425,26.3418 26.3775,25.8068 27.0545,25.8068 C27.7315,25.8068 28.2665,26.3418 28.2665,27.0188 C28.2305,27.6958 27.6965,28.2308 27.0545,28.2308 M27.0545,24.4168 C26.5915,24.4168 26.1635,24.5598 25.7715,24.7728 L24.1315,23.1338 C23.8465,22.8488 23.3835,22.8488 23.1335,23.1338 C22.8485,23.4188 22.8485,23.8818 23.1335,24.1318 L24.7735,25.7718 C24.5595,26.1638 24.4165,26.5908 24.4165,27.0548 C24.4165,28.5158 25.5935,29.6918 27.0545,29.6918 C28.5155,29.6918 29.6925,28.5158 29.6925,27.0548 C29.6925,25.5928 28.4805,24.4168 27.0545,24.4168" id="Fill-22"></path>
                <path d="M31.225,18.1433 C30.548,18.1433 30.013,17.6083 30.013,16.9313 C30.013,16.2543 30.548,15.7193 31.225,15.7193 C31.902,15.7193 32.437,16.2543 32.437,16.9313 C32.437,17.6083 31.902,18.1433 31.225,18.1433 M31.225,14.2933 C30.013,14.2933 29.015,15.1133 28.694,16.2183 L26.377,16.2183 C25.985,16.2183 25.664,16.5393 25.664,16.9313 C25.664,17.3233 25.985,17.6443 26.377,17.6443 L28.694,17.6443 C29.015,18.7493 30.013,19.5693 31.225,19.5693 C32.686,19.5693 33.863,18.3933 33.863,16.9313 C33.863,15.4703 32.686,14.2933 31.225,14.2933" id="Fill-24"></path>
                <path d="M27.0545,5.6321 C27.7315,5.6321 28.2665,6.1671 28.2665,6.8441 C28.2665,7.5211 27.7315,8.0561 27.0545,8.0561 C26.3775,8.0561 25.8425,7.4861 25.8425,6.8081 C25.8425,6.1671 26.3775,5.6321 27.0545,5.6321 M23.6325,10.9431 C23.8105,10.9431 23.9895,10.8721 24.1315,10.7291 L25.7715,9.0901 C26.1635,9.3031 26.5915,9.4461 27.0545,9.4461 C28.5155,9.4461 29.6925,8.2701 29.6925,6.8081 C29.6925,5.3471 28.5155,4.1711 27.0545,4.1711 C25.5935,4.1711 24.4165,5.3471 24.4165,6.8081 C24.4165,7.2721 24.5595,7.6991 24.7735,8.0911 L23.1335,9.7311 C22.8485,10.0161 22.8485,10.4801 23.1335,10.7291 C23.2765,10.8721 23.4545,10.9431 23.6325,10.9431" id="Fill-26"></path>
                <path d="M16.9314,12.0248 C16.2304,12.0248 15.6604,12.5948 15.6604,13.2958 C15.6604,13.9968 16.2304,14.5668 16.9314,14.5668 C17.6324,14.5668 18.2024,13.9968 18.2024,13.2958 C18.2024,12.5948 17.6324,12.0248 16.9314,12.0248 L16.9314,12.0248 Z M14.2854,20.4158 C16.0134,20.6838 17.8494,20.6838 19.5774,20.4158 L19.3854,18.8468 C19.2914,18.1298 18.6814,17.5848 17.9654,17.5848 L15.8974,17.5848 C15.1814,17.5848 14.5714,18.1298 14.4774,18.8518 L14.2854,20.4158 Z M16.9314,22.2088 C15.6824,22.2088 14.4334,22.0878 13.2444,21.8468 L12.5224,21.6998 L12.8974,18.6518 C13.0934,17.1338 14.3834,15.9928 15.8974,15.9928 L15.9674,15.9928 C14.8614,15.5958 14.0674,14.5368 14.0674,13.2958 C14.0674,11.7168 15.3524,10.4318 16.9314,10.4318 C18.5104,10.4318 19.7954,11.7168 19.7954,13.2958 C19.7954,14.5368 19.0014,15.5958 17.8954,15.9928 L17.9654,15.9928 C19.4794,15.9928 20.7694,17.1338 20.9654,18.6468 L21.3404,21.6998 L20.6184,21.8468 C19.4294,22.0878 18.1804,22.2088 16.9314,22.2088 L16.9314,22.2088 Z" id="Fill-28"></path>
            </g>
        </g>
    </g>
</svg>
