<?xml version="1.0" encoding="UTF-8"?>
<svg width="37px" height="37px" viewBox="0 0 37 37" version="1.1" xmlns="http://www.w3.org/2000/svg" xmlns:xlink="http://www.w3.org/1999/xlink">
    <defs>
        <polygon id="path-1" points="0 0 36.4667 0 36.4667 36.4669 0 36.4669"></polygon>
    </defs>
    <g id="Page-1" stroke="none" stroke-width="1" fill="none" fill-rule="evenodd">
        <g id="Artboard" transform="translate(-655.000000, -2526.000000)">
            <g id="ic_manufacturing" transform="translate(655.000000, 2526.000000)">
                <mask id="mask-2" fill="white">
                    <use xlink:href="#path-1"></use>
                </mask>
                <g id="Clip-2"></g>
                <path d="M27.107,9.9979 C27.331,9.1109 26.793,8.2109 25.906,7.9869 C25.851,7.9729 25.795,7.9619 25.739,7.9539 L18.233,6.8379 L10.727,7.9469 C9.815,8.0889 9.191,8.9429 9.333,9.8549 C9.34,9.9009 9.349,9.9459 9.36,9.9899 L10.993,16.5239 C11.078,16.9349 10.814,17.3369 10.403,17.4219 C10.014,17.5019 9.629,17.2699 9.519,16.8889 L7.886,10.3629 C7.684,9.4909 7.855,8.5739 8.357,7.8329 C8.85,7.0949 9.63,6.5959 10.507,6.4579 L17.474,5.4239 L17.474,1.5189 L13.675,1.5189 C13.255,1.5189 12.915,1.1789 12.915,0.7599 C12.915,0.3399 13.255,-0.0001 13.675,-0.0001 L22.792,-0.0001 C23.211,-0.0001 23.551,0.3399 23.551,0.7599 C23.551,1.1789 23.211,1.5189 22.792,1.5189 L18.993,1.5189 L18.993,5.4239 L25.96,6.4579 C26.837,6.5959 27.616,7.0949 28.11,7.8329 C28.603,8.5809 28.763,9.4999 28.55,10.3699 L26.917,16.8959 C26.832,17.3069 26.43,17.5719 26.019,17.4869 C25.608,17.4019 25.344,16.9999 25.429,16.5889 C25.433,16.5699 25.438,16.5509 25.443,16.5319 L27.107,9.9979 Z M12.915,22.0319 L23.551,22.0319 L23.551,11.3959 L12.915,11.3959 L12.915,22.0319 Z M12.155,9.8759 C11.736,9.8759 11.396,10.2169 11.396,10.6359 L11.396,22.7919 C11.396,23.2109 11.736,23.5519 12.155,23.5519 L24.311,23.5519 C24.731,23.5519 25.071,23.2109 25.071,22.7919 L25.071,10.6359 C25.071,10.2169 24.731,9.8759 24.311,9.8759 L12.155,9.8759 Z M30.389,31.9089 C29.969,31.9089 29.629,31.5689 29.629,31.1489 C29.629,30.7289 29.969,30.3889 30.389,30.3889 C30.809,30.3889 31.149,30.7289 31.149,31.1489 C31.149,31.5689 30.809,31.9089 30.389,31.9089 L30.389,31.9089 Z M24.311,31.9089 C23.892,31.9089 23.551,31.5689 23.551,31.1489 C23.551,30.7289 23.892,30.3889 24.311,30.3889 C24.731,30.3889 25.071,30.7289 25.071,31.1489 C25.071,31.5689 24.731,31.9089 24.311,31.9089 L24.311,31.9089 Z M18.233,31.9089 C17.814,31.9089 17.474,31.5689 17.474,31.1489 C17.474,30.7289 17.814,30.3889 18.233,30.3889 C18.653,30.3889 18.993,30.7289 18.993,31.1489 C18.993,31.5689 18.653,31.9089 18.233,31.9089 L18.233,31.9089 Z M12.155,31.9089 C11.736,31.9089 11.396,31.5689 11.396,31.1489 C11.396,30.7289 11.736,30.3889 12.155,30.3889 C12.575,30.3889 12.915,30.7289 12.915,31.1489 C12.915,31.5689 12.575,31.9089 12.155,31.9089 L12.155,31.9089 Z M6.078,31.9089 C5.658,31.9089 5.318,31.5689 5.318,31.1489 C5.318,30.7289 5.658,30.3889 6.078,30.3889 C6.497,30.3889 6.837,30.7289 6.837,31.1489 C6.837,31.5689 6.497,31.9089 6.078,31.9089 L6.078,31.9089 Z M31.149,34.9479 L5.318,34.9479 C3.22,34.9479 1.519,33.2469 1.519,31.1489 C1.519,29.0509 3.22,27.3499 5.318,27.3499 L31.149,27.3499 C33.247,27.3499 34.947,29.0509 34.947,31.1489 C34.947,33.2469 33.247,34.9479 31.149,34.9479 L31.149,34.9479 Z M31.149,25.8309 L5.318,25.8309 C2.381,25.8309 0,28.2119 0,31.1489 C0,34.0859 2.381,36.4669 5.318,36.4669 L31.149,36.4669 C34.086,36.4669 36.467,34.0859 36.467,31.1489 C36.467,28.2119 34.086,25.8309 31.149,25.8309 L31.149,25.8309 Z" id="Fill-1" fill="#FEFEFE" mask="url(#mask-2)"></path>
            </g>
        </g>
    </g>
</svg>
