<?xml version="1.0" encoding="UTF-8" standalone="no"?>
<!-- Created with Inkscape (http://www.inkscape.org/) -->

<svg
        width="1443.0375mm"
        height="2634.9854mm"
        viewBox="0 0 1443.0375 2634.9854"
        version="1.1"
        id="svg3119"
        xmlns="http://www.w3.org/2000/svg">
    <defs
            id="defs3116">
        <linearGradient
                x1="4922.3262"
                y1="1540.3975"
                x2="4939.9595"
                y2="4210.0806"
                id="linearGradient-2"
                gradientTransform="scale(0.60464154,1.6538725)"
                gradientUnits="userSpaceOnUse">
            <stop
                    stop-color="#232323"
                    offset="0%"
                    id="stop530"/>
            <stop
                    stop-color="#232323"
                    offset="100%"
                    id="stop532"/>
        </linearGradient>
        <linearGradient
                x1="5074.9155"
                y1="-6068.4443"
                x2="5123.7095"
                y2="3141.1416"
                id="linearGradient-6"
                gradientTransform="scale(0.57221816,1.7475852)"
                gradientUnits="userSpaceOnUse">
            <stop
                    stop-color="#232323"
                    offset="0%"
                    id="stop541"/>
            <stop
                    stop-color="#232323"
                    offset="100%"
                    id="stop543"/>
        </linearGradient>
        <mask
                id="mask-4"
                fill="#ffffff">
            <polyline
                    id="use565"
                    points="2621 7520 2608.26849 7520 2510 7181 2525.2059 7189.49935 2621 7520"
                    transform="scale(0.26458333)"/>
        </mask>
        <linearGradient
                x1="146317.53"
                y1="-260298.09"
                x2="158009.16"
                y2="-23709.225"
                id="linearGradient-10"
                gradientTransform="scale(0.81653003,1.2246947)"
                gradientUnits="userSpaceOnUse">
            <stop
                    stop-color="#232323"
                    offset="0%"
                    id="stop552"/>
            <stop
                    stop-color="#232323"
                    offset="100%"
                    id="stop554"/>
        </linearGradient>
        <mask
                id="mask-8"
                fill="#ffffff">
            <path
                    d="m 458.88961,1784.7577 7.91307,4.4327 70.79936,84.9458 23.96045,-31.8797 2.85516,1.5987 -24.6807,32.8405 94.15745,112.971 h -4.22138 l -91.93695,-110.3098 -82.90151,110.3098 h -1.33715 v -3.6172 l 82.10375,-109.2488 z m 499.24039,57.536 28.21413,121.2242 c -0.74932,1.6391 -1.45988,3.2006 -2.20274,4.8413 L 955.5962,1845.7106 Z m -148.47502,-107.844 2.18659,0.6896 -48.68637,204.8459 c -0.61206,-0.089 -1.23057,-0.134 -1.85554,-0.134 -0.22447,0 -0.44894,0.01 -0.67503,0.018 l 7.09592,-29.724 -76.71155,-79.8414 -7.01356,-11.9787 84.61978,88.0737 z m -37.05416,176.0958 19.02205,19.7976 -2.70013,1.87 -17.21335,-17.9148 z m -194.71964,-240.1878 40.66187,73.7422 c 2.26249,-1.0254 4.73976,-1.5809 7.27679,-1.5809 1.86038,0 3.75306,0.2987 5.61344,0.9301 1.50994,0.5135 2.88907,1.2257 4.15194,2.0734 l 1.78447,-2.0992 1.73603,2.9632 -1.01093,1.1885 c 4.64448,4.578 6.56139,11.5604 4.32312,18.1521 -0.75094,2.2123 -1.90883,4.1711 -3.35094,5.836 l 37.85031,39.395 7.01517,11.9787 -47.20711,-49.1324 c -1.4518,1.1562 -3.06994,2.0799 -4.80113,2.7291 l 35.3908,122.2109 -4.02759,-2.2559 -34.4913,-119.104 c -0.98994,0.1728 -1.99764,0.2616 -3.01504,0.2616 -1.87006,0 -3.77082,-0.3004 -5.64088,-0.935 -1.39206,-0.4731 -2.66945,-1.1175 -3.85157,-1.878 l -50.42563,67.0972 -2.85516,-1.5986 50.726,-67.4945 c -4.07281,-3.853 -6.1399,-9.5097 -5.32921,-15.2148 l -29.90333,-7.0261 -125.00389,-29.3768 v -3.3313 l 155.64846,36.5804 0.01,-0.034 c 1.25156,-3.6802 3.61095,-6.6595 6.57108,-8.7281 l -41.05268,-74.4511 z m 375.36694,150.9595 4.17131,17.9277 -2.53379,3.4169 -4.50561,-19.3584 z m -14.05781,-46.0933 3.59318,1.1319 9.88164,42.4616 -2.86646,1.9847 z m -485.6929,-1.9992 9.03544,10.8403 -7.91469,-4.4311 -1.12075,-1.3451 z m 475.40268,-42.2161 4.26821,4.0402 8.98699,38.6087 -3.59318,-1.132 z m -249.14218,-37.446 3.3574,1.0577 -42.37368,49.8413 -1.73442,-2.9632 z m 149.51017,-41.2844 c 0.65727,0.3585 1.34523,0.6588 2.05417,0.8994 l -18.92838,79.6363 -2.18498,-0.6879 z m 80.58896,-17.39 22.33262,95.9492 -4.26982,-4.0403 -21.31846,-91.5908 z m -192.01789,18.8869 -33.04756,38.8719 -3.35579,-1.0561 31.75886,-37.3556 z m -197.16139,-87.1581 32.09315,58.2044 26.0889,-13.1236 0.77355,3.2426 -25.29437,12.7215 22.35845,40.5481 -3.20721,0.8994 -22.05001,-39.9909 -97.94281,49.2632 v -3.6301 l 96.37473,-48.4736 -31.54731,-57.2113 z m 261.91936,5.9829 1.99603,2.6564 -64.52865,75.9012 -4.64611,0.4602 z m 116.40448,15.6443 10.3096,44.2993 -3.25566,0.3181 -9.83158,-42.2452 z m -63.04132,-176.7594 31.71041,37.3329 c 2.89231,-2.0249 6.36114,-3.1602 9.9624,-3.1828 l 2.18336,-25.3348 2.98597,3.1036 -1.94112,22.5154 c 0.8446,0.1534 1.69081,0.3488 2.52895,0.633 9.18723,3.1183 14.10464,13.0914 10.98624,22.2764 -2.48373,7.3119 -9.31158,11.919 -16.62874,11.919 -1.28063,0 -2.5774,-0.1421 -3.86772,-0.4344 l 24.51114,105.3135 -2.77604,2.3722 -23.53573,-101.1198 -33.76781,141.4773 c -0.55876,-0.1276 -1.12721,-0.218 -1.70211,-0.2697 l -0.0194,-6.4851 33.98582,-142.3945 c -1.04,-0.4619 -2.01218,-1.0206 -2.91653,-1.6568 l -31.39066,36.9227 -0.0145,-4.9881 28.93761,-34.0387 c -0.88497,-0.906 -1.67305,-1.8926 -2.33839,-2.9584 l -26.67027,13.4143 -0.0113,-3.6237 25.22978,-12.6892 c -0.53454,-1.3564 -0.88659,-2.7823 -1.07069,-4.2437 l -24.20753,0.7525 -0.01,-3.2458 24.11709,-0.7477 c 0.0953,-1.5227 0.36821,-3.0552 0.88336,-4.5699 0.87528,-2.574 2.30125,-4.7976 4.08411,-6.6175 l -29.22183,-34.4037 z m -224.19825,183.6644 -1.23056,4.2502 -28.70991,14.4397 -0.77354,-3.241 z m 64.81773,-32.6015 -5.20971,6.2509 -57.93174,29.1378 1.23056,-4.2486 z m 157.29728,-50.2661 0.0145,4.9882 -47.71581,56.1246 -1.99603,-2.6564 z m -342.07229,-265.3176 2.24795,9.4209 -21.76578,202.1718 c 0.25031,0.073 0.50223,0.1292 0.74932,0.2131 3.5092,1.1918 6.38697,3.3863 8.44114,6.1509 l 53.34539,-37.7221 0.8123,3.3992 -52.46365,37.0988 c 0.9205,1.8844 1.4938,3.9401 1.69405,6.0587 l 60.62057,-1.8812 0.7687,3.2199 -61.17772,1.8991 -0.21155,0.01 c -0.12435,1.35 -0.3892,2.7064 -0.8446,4.0467 -1.16274,3.4251 -3.27989,6.2542 -5.95257,8.297 l 41.40312,75.0873 -2.35131,2.4497 -41.80523,-75.8156 c -2.43045,1.2305 -5.14188,1.8974 -7.92438,1.8974 -0.76546,0 -1.53739,-0.052 -2.30932,-0.155 l -11.58377,36.2203 v -10.6433 l 8.41208,-26.3069 -0.16633,-0.047 c -3.40249,-1.1558 -6.2117,-3.2555 -8.24733,-5.9045 l 0.002,-21.4682 0.28969,-0.3671 c 2.23626,-2.7311 5.24013,-4.7009 8.56811,-5.7014 l -8.8578,-32.1898 v -12.2177 l 12.04402,43.768 c 0.61367,-0.066 1.23218,-0.098 1.85553,-0.098 0.56199,0 1.12721,0.027 1.69566,0.082 z m 256.22841,279.6459 1.97988,2.6338 -73.29601,36.8662 5.2097,-6.2509 z m 85.75668,-43.1334 0.0113,3.6237 -81.62412,41.0551 -1.97988,-2.6338 z m -223.45701,-13.6161 -3.21367,3.3459 -58.43075,1.8134 -0.7687,-3.2215 z m 38.05379,-1.1804 -0.94795,3.2748 -36.90882,1.1449 3.21368,-3.3443 z m 54.83112,-1.702 2.38361,3.1715 -55.65634,1.7262 0.94957,-3.2732 z m 54.42576,-1.6891 -2.77603,3.3313 -46.35121,1.4388 -2.38361,-3.1715 z m 76.08497,-2.3625 0.01,3.2458 -75.68285,2.3479 2.77603,-3.3314 z m -211.67299,-97.4122 2.10746,2.4803 -86.43171,61.1192 -0.81069,-3.3992 z m 265.60783,1.5341 -4.58797,53.1969 -2.98597,-3.1053 4.30051,-49.872 z m -67.03178,26.3909 12.93545,15.2277 0.0145,5.027 -15.05744,-17.7259 z m -10.03183,-11.8124 8.46537,9.9683 -2.10746,2.5288 -9.90587,-11.6622 z m -33.59663,-34.5425 7.42859,3.7351 24.43201,28.7647 -3.54796,0.8332 z m -75.31627,-37.8804 3.2815,1.6504 -78.84808,55.7563 -2.10908,-2.4803 z m 189.16596,20.857 -2.98275,34.5829 -3.27342,0.2196 2.79057,-32.3658 z m -156.52213,-38.2243 46.14127,54.3224 -7.4286,-3.7367 -40.38733,-47.5499 z m 160.47382,-45.3506 3.15877,1.1159 -6.84239,79.3569 -3.4656,2.4368 z m -240.33607,-43.6614 4.36995,0.1357 72.45788,85.3043 3.73691,-2.6419 -4.02921,7.3071 -0.25839,-0.3036 -23.56964,16.6665 -3.2815,-1.6503 24.7453,-17.4966 z m 137.55014,42.502 1.03677,3.2393 -57.15012,40.4124 3.59157,-6.5125 z m -296.9032,-29.1248 2.89715,3.4072 -3.19753,29.6949 -2.24796,-9.4192 z m 330.07027,5.6728 3.74498,1.3226 -33.83241,23.9251 -1.03677,-3.241 z m 71.0529,7.9869 3.19914,0.654 -1.26286,14.6319 -3.15877,-1.1175 z m -62.49387,-213.138 63.4499,135.4992 c 1.88783,-0.6798 3.8984,-1.0415 5.94772,-1.0415 1.35168,0 2.71951,0.1566 4.08088,0.4844 l 38.50758,-113.4134 1.48572,5.7068 -36.92497,108.7482 c 0.39243,0.1744 0.76709,0.373 1.14175,0.5732 l 46.1235,-69.6147 1.09653,4.2147 -44.51505,67.1893 c 1.87491,1.5114 3.39939,3.3717 4.50399,5.458 l 53.16613,-22.1326 0.82522,3.1682 -52.74626,21.9567 c 1.07069,3.4283 1.12075,7.2053 -0.12112,10.8661 -2.4692,7.2747 -9.24375,11.8528 -16.5157,11.9012 l -3.6061,41.8351 -3.20076,-0.654 3.57542,-41.4653 c -0.8446,-0.1534 -1.69081,-0.3504 -2.53057,-0.633 -3.10063,-1.0545 -5.69902,-2.8986 -7.68214,-5.2207 l -50.41271,35.6503 -4.35703,-0.8914 52.89806,-37.4056 c -2.18013,-3.7851 -2.95367,-8.3551 -1.8733,-12.8491 l -85.07357,-28.8826 0.86075,-3.1311 85.25444,28.9439 c 1.53417,-3.446 4.07765,-6.1799 7.15568,-7.982 l -61.83822,-132.0629 z m -1.38075,200.0741 4.35703,0.8914 -5.40511,3.8223 -3.74498,-1.3242 z m -336.13427,-10.9339 3.09418,1.5567 -0.96088,8.9186 -2.89554,-3.4056 z m 0.85268,-7.9255 3.25081,0.1017 -0.73639,6.8469 -3.09418,-1.5567 z m 70.09203,-102.8929 89.58079,105.4637 -4.36995,-0.1357 -4.03082,-4.7459 c -0.79131,-1.1126 -1.68274,-2.1639 -2.66784,-3.1408 l -80.64064,-94.9367 z m -63.84394,75.1633 -2.7405,25.4527 -3.25244,-0.1017 2.25604,-20.9523 z m -38.39776,-158.9351 35.97055,17.075 c 2.55156,-4.3099 6.79555,-7.2327 11.54823,-8.221 l -0.32782,-2.9357 3.54473,2.5078 0.008,0.068 c 0.0291,0 0.0581,0 0.0856,0 l 17.15845,12.1321 -0.19864,0.084 c 0.95118,2.9729 1.12883,6.2106 0.36013,9.4144 l 25.52207,8.6634 9.30835,6.5837 -35.87365,-12.179 c -0.86721,1.9475 -2.06225,3.6576 -3.4866,5.1125 l 37.05577,43.6259 -2.12684,2.5046 -37.40136,-44.0328 c -2.92299,2.0476 -6.43543,3.1941 -10.07705,3.1941 -0.0856,0 -0.17118,0 -0.25677,0 l -11.96166,111.1187 -3.73529,4.3988 12.47358,-115.876 c -0.72348,-0.147 -1.44534,-0.3262 -2.16398,-0.5684 -9.18401,-3.1183 -14.10141,-13.0914 -10.98302,-22.2764 l 0.15019,-0.3811 -34.27005,-16.2677 z m 760.41039,-547.90249 26.4216,159.76027 c 0.4183,-0.0307 0.8365,-0.0452 1.258,-0.0452 1.8717,0 3.7741,0.30197 5.6458,0.93659 0.457,0.15341 0.8946,0.33911 1.3307,0.52805 l 235.5527,-87.07415 c -0.8705,-3.24416 -0.8269,-6.76931 0.3342,-10.18787 2.4822,-7.31512 9.3116,-11.9222 16.6288,-11.9222 1.8733,0 3.7773,0.30197 5.649,0.9366 9.184,3.11821 14.103,13.09293 10.9846,22.27801 -2.4837,7.31189 -9.3132,11.91896 -16.6304,11.91896 -1.8717,0 -3.7756,-0.30036 -5.6473,-0.93659 -0.5572,-0.18894 -1.0982,-0.40371 -1.623,-0.6427 l -277.2029,485.09742 0.914,0.8413 -1.8297,0.7606 -3.2346,5.6631 0.3052,-4.4423 -249.34083,103.7955 -0.82522,-3.1666 248.99845,-103.6567 -142.0202,-130.61123 -120.58873,182.00763 -1.09652,-4.2147 119.26775,-180.01653 -63.1205,-58.05105 -66.8622,196.92038 -1.48572,-5.7051 66.10322,-194.69198 c -3.0167,-1.34191 -5.4843,-3.45894 -7.2607,-6.02972 l 25.7224,3.43794 c -3.1362,2.62892 -7.1396,4.11778 -11.3012,4.11778 -0.8075,0 -1.6214,-0.0565 -2.4353,-0.17117 l 62.4535,57.43742 62.8282,-94.82688 c -0.78,2.47713 -1.1385,5.02208 -1.1046,7.53635 l -59.3061,89.51252 141.7861,130.39324 25.5947,-372.88865 c -0.9463,-0.15502 -1.8926,-0.36979 -2.8309,-0.6863 -0.935,-0.31812 -1.8103,-0.72182 -2.6533,-1.17235 l -87.5605,132.15659 c -2.3401,0.95436 -4.5412,2.28012 -6.5017,3.94338 l 91.3588,-137.89081 c -0.5684,-0.45699 -1.1078,-0.94143 -1.6084,-1.45979 l -146.1124,114.63261 0.9512,-4.86706 143.1345,-112.29758 c -0.4894,-0.7412 -0.9222,-1.5147 -1.2952,-2.32049 l -127.8235,42.83785 0.7138,-3.65756 126.0229,-42.23553 c -0.6686,-2.63215 -0.7429,-5.44355 -0.1002,-8.2291 l -108.5915,-38.29054 0.6282,-3.21833 108.204,38.15489 1.1046,-0.40693 c 0.4328,-0.88977 0.9237,-1.7327 1.4841,-2.51912 l -100.6785,-87.02408 0.7154,-3.66725 102.0883,88.24327 c 2.1672,-2.07665 4.8253,-3.56713 7.7112,-4.32609 l -26.5023,-160.23988 z m -452.50156,659.42169 26.74295,9.0785 -0.86075,3.1311 -25.49946,-8.657 z m -177.92779,-60.4054 175.43759,59.5592 0.38112,3.5526 -178.07635,-60.4555 z m -28.3627,-9.6292 25.93226,8.804 -2.25603,2.6564 -14.36788,-4.8784 z m 103.52394,-82.54296 -4.67517,5.50329 -129.89707,55.08467 -3.11355,-2.201 z m 826.60891,-429.69949 -233.0544,86.15047 c 5.8605,4.44397 8.5154,12.28552 6.022,19.63294 -2.4353,7.1714 -9.0532,11.72195 -16.2105,11.89474 l -25.3428,369.1955 274.3396,-480.08335 c -2.5047,-1.75369 -4.4684,-4.10486 -5.7539,-6.7903 z M 631.84346,922.84288 529.46126,1026.049 c 0.28746,0.344 0.562,0.6993 0.822,1.0642 l -9.46177,-6.6918 c 0.27614,0.079 0.55391,0.1647 0.83167,0.2584 2.05417,0.6976 3.88064,1.752 5.46487,3.0504 l 96.82367,-98.20512 z m 135.14554,-48.6835 21.47025,45.85111 78.59455,-33.32982 -1.09653,3.98698 -76.12373,32.2818 42.35269,90.44585 -1.32584,4.8138 -44.01282,-93.99363 -33.83887,14.35087 -0.36174,-3.36689 32.82471,-13.91972 -21.41212,-45.72999 z m -257.51066,90.22465 5.83468,52.14247 -3.54473,-2.5062 -5.43418,-48.56726 z m -55.98093,41.46047 8.93854,4.2437 0.32137,3.7415 -9.25991,-4.3971 z m 296.85315,-69.67131 0.36335,3.36689 -80.421,34.10331 4.67517,-5.50329 z m -248.59634,-40.80642 7.4512,66.59181 -3.14262,1.06739 -6.9425,-62.03318 z m 186.85825,-35.43715 3.97107,1.68263 -56.97249,57.43258 -7.93729,2.69351 z M 480.80073,771.801 l 3.85641,1.63581 3.78536,12.95728 c 1.10783,-0.21638 2.23988,-0.32942 3.38485,-0.32942 1.85877,0 3.74821,0.29713 5.60536,0.92852 0.58137,0.19701 1.14497,0.41985 1.69082,0.67015 l 3.74982,-6.50125 3.00697,1.2757 -3.95331,6.85167 c 4.61704,3.26193 7.36723,8.57791 7.40922,14.19909 l 32.39352,0.88168 -1.50025,3.2038 -31.17426,-0.84778 c -0.15503,0.85101 -0.35044,1.7004 -0.63628,2.54172 -2.29479,6.75801 -8.30388,11.19068 -14.97346,11.82854 l 7.4076,66.21878 2.3933,-0.76219 -1.87169,3.99828 -0.15503,0.0501 0.0258,0.22608 -2.63392,5.62441 -0.54261,-4.84768 -44.57158,14.18293 v -3.40403 l 44.20499,-14.06506 -7.52064,-67.22158 c -1.34845,-0.12435 -2.70336,-0.39079 -4.04213,-0.84455 -2.7405,-0.93014 -5.0902,-2.48036 -6.97157,-4.42945 l -25.67065,21.67246 v -4.24374 l 23.64555,-19.96236 c -0.31168,-0.47315 -0.60075,-0.96082 -0.8656,-1.46303 l -22.77995,9.47252 v -3.509 l 21.53486,-8.95577 c -1.06746,-3.42503 -1.11752,-7.20047 0.12434,-10.85803 0.281,-0.8284 0.63628,-1.60997 1.02224,-2.36571 l -22.68144,-14.43807 v -3.8465 l 24.42071,15.54423 c 1.94596,-2.50943 4.51529,-4.42137 7.41244,-5.56789 z m 164.22042,69.6422 4.58312,1.94423 -145.13377,46.17892 1.87168,-3.99829 z m 257.33786,30.2665 0.82683,3.1715 -34.42831,14.59956 1.09814,-3.98698 z m 93.47918,-39.64213 6.31591,0.84455 -96.74775,41.02603 -0.82523,-3.16988 z m -244.18278,9.34656 14.32104,30.58463 -2.92945,1.39197 -12.08277,-25.80639 z m -46.72102,1.96039 2.87131,2.89536 -13.41185,13.51925 -3.97914,-1.68749 z m -63.6227,-105.13103 8.60425,2.73873 75.41801,60.40383 c 2.47567,-2.5611 5.67319,-4.3051 9.14525,-5.01239 l -3.17007,-29.49462 3.37678,1.07546 3.01666,28.07359 c 0.0888,-0.002 0.17764,-0.002 0.26646,-0.002 1.86845,0 3.76759,0.2826 5.63443,0.91561 4.31827,1.46625 7.67729,4.45205 9.71531,8.15482 l -2.25603,20.16906 c -1.45988,1.62935 -3.20399,2.95996 -5.12412,3.94015 l 3.77889,8.07086 -0.68957,6.17021 -6.10759,-13.04126 c -1.60845,0.47637 -3.28958,0.72828 -4.99816,0.72828 -1.86037,0 -3.75144,-0.29874 -5.61181,-0.93174 -2.07194,-0.70245 -3.91294,-1.76823 -5.50686,-3.0843 l -17.20365,17.34151 -2.86809,-2.90828 17.1859,-17.43033 c -0.85913,-1.14329 -1.55839,-2.39316 -2.11554,-3.70601 l -27.334,8.6974 -2.55317,-2.59016 28.90208,-9.19638 c -0.34559,-1.57445 -0.4764,-3.20218 -0.37143,-4.8493 l -43.54611,-1.18527 -3.28635,-3.33298 47.33954,1.28862 c 0.11143,-0.44084 0.22447,-0.88169 0.37304,-1.31931 0.49417,-1.45333 1.17566,-2.78555 1.98311,-4.0112 z m 47.79171,89.17341 2.5661,2.58532 -38.57379,12.27422 -4.58474,-1.94424 z m 317.0702,-14.30243 31.5506,13.11877 c -0.1551,0.94628 -0.3892,1.89418 -0.7074,2.83239 -0.7267,2.13801 -1.8232,4.0435 -3.1959,5.67123 l -33.666,-4.49888 3.514,-1.49047 c -0.4441,-1.39036 -0.7267,-2.83724 -0.8139,-4.31641 l -62.43575,-2.17677 -33.34147,-4.45528 4.31989,0.15341 91.56553,3.22963 c 0.1469,-1.13845 0.4053,-2.28012 0.7913,-3.40888 0.5814,-1.71332 1.4066,-3.27162 2.4191,-4.65874 z m -136.02079,-168.5368 81.50301,95.66981 30.78506,-10.31706 2.24958,2.66444 -30.76893,10.31061 56.36847,66.16388 c 2.9343,-2.06051 6.4645,-3.21349 10.1207,-3.21349 1.862,0 3.7579,0.30036 5.6215,0.93175 2.8035,0.95275 5.2049,2.5498 7.1072,4.56348 l 10.8539,-8.51493 2.0945,2.47874 -10.9539,8.59406 c 1.8652,2.89375 2.8761,6.31393 2.8131,9.83423 l -30.1568,-12.54067 0.029,-0.0323 v 0 l -57.20824,-67.15539 -57.80577,19.37296 -4.55244,-1.89256 60.08926,-20.13838 -80.95069,-95.02227 z m 30.67364,174.79098 15.23832,2.0379 -15.67757,-0.54742 c 0.17603,-0.48606 0.32298,-0.98343 0.43925,-1.49048 z M 755.15977,810.0996 c 0.15987,0.7735 0.27292,1.55669 0.3246,2.35118 l 119.84747,4.2292 c 0.0194,1.05932 0.16795,2.13156 0.46025,3.19572 l -0.2487,0.11788 -120.164,-4.19044 c -0.14695,1.14167 -0.40695,2.28658 -0.7913,3.41695 -0.18572,0.54581 -0.39566,1.07547 -0.62659,1.59059 z m -189.94274,-5.0899 104.47836,2.84208 3.30734,3.3346 -99.6094,-2.70967 z m 238.35619,-15.13568 5.23393,1.66488 -53.57956,17.95676 0.39727,-3.55259 z m -259.24346,14.56727 14.3598,0.39078 8.1763,3.46701 -24.03635,-0.654 z m 548.04954,-39.56463 -0.9512,4.86706 -43.4622,34.09685 -2.0929,-2.47874 z m -251.4564,12.47931 2.89877,2.44806 -31.18234,10.45109 -5.23392,-1.66649 z m -299.54843,-56.44108 -34.29427,59.4414 -3.00535,-1.2757 33.47874,-58.03167 z m 343.43852,41.73333 4.55243,1.89256 -42.89691,14.37671 -2.90038,-2.44806 z m -414.77888,-39.24651 13.75905,47.07837 -3.85641,-1.63581 -13.24712,-45.32629 z m 258.83812,-9.55325 5.53592,51.51265 -3.37679,-1.07386 -5.40995,-50.34998 z m -109.12769,2.96964 24.98269,20.00758 -8.60425,-2.73711 -21.39435,-17.13482 z m 487.63406,-28.75827 -0.7138,3.65756 -119.53906,40.06038 -2.24957,-2.66445 z m -653.88119,-11.75748 3.0748,1.03026 12.76103,43.66787 -3.34448,0.11788 -12.49135,-42.74581 z m 92.06937,30.85592 3.13616,1.05125 -5.88312,10.19756 -3.82088,0.13565 z m 57.4392,-3.74799 13.85594,11.09864 -5.01591,0.13725 -11.43358,-9.15924 z m 113.83838,-71.1569 4.00821,6.94694 7.7645,72.2679 -3.25082,0.0888 z m -237.39046,-27.79583 85.74214,68.67492 25.78207,-44.68844 -0.85752,7.97235 -22.3633,38.76368 16.75633,13.42074 -0.41019,3.8255 -17.98366,-14.40417 -16.19918,28.08005 -3.13778,-1.05124 16.77571,-29.07962 -86.20885,-69.04311 z m 107.26892,85.91308 14.37433,11.51203 -2.59193,2.07666 -12.19259,-9.7648 z m -133.22541,-23.56017 2.26088,7.73497 -2.26088,-0.75735 z m 352.71134,-97.29109 62.38245,73.22548 -2.76151,1.75692 -60.70939,-71.26186 z m -88.34215,41.89803 2.35454,21.91468 -4.00659,-6.94533 -1.35007,-12.56327 z m -65.0535,-90.1536 1.87168,3.24417 -61.61536,106.79913 0.85752,-7.97235 z m 48.24873,-35.9119 3.41069,1.3952 13.09209,121.85568 -3.00212,2.40446 z m -247.56442,98.31649 24.09449,19.29706 -2.10423,2.47067 -21.99026,-17.61119 z m 558.45759,-29.34929 113.7092,40.09428 -0.6298,3.21672 -116.5563,-41.0987 z m -220.35959,-1.95231 12.76265,14.98065 -1.08683,3.72054 -14.20638,-16.6746 z m 109.58955,-37.10687 107.91004,38.04992 -3.4769,2.21391 -110.64247,-39.01397 z m -155.3287,-11.58632 6.53232,2.67253 37.65975,44.20399 -2.53057,2.02659 z m -233.87319,16.30804 c -0.27292,1.2321 -0.4441,2.4739 -0.52,3.71569 l -57.96566,23.71035 v -3.50415 z m 582.71033,-18.32655 41.9942,36.29946 -0.7154,3.66563 -44.1339,-38.14843 z m -415.90606,-25.41399 3.02958,1.23856 -25.75462,44.64161 -1.87168,-3.24416 z m 175.17113,22.36683 42.83232,15.10338 -6.20934,1.24986 -39.36025,-13.87934 z m -286.25124,-1.42104 -4.58151,5.37895 -11.34475,4.63937 c -0.9205,-0.82679 -1.91529,-1.5906 -2.98113,-2.28335 z M 832.03281,374.91458 714.53827,438.58196 c 1.46957,3.43472 1.85715,7.33773 0.8882,11.17776 l 118.10014,41.64289 -1.3856,2.95189 -117.78038,-41.53147 c -0.85591,1.8635 -2.02026,3.49931 -3.39132,4.9042 l 38.05056,44.66421 -6.53232,-2.67252 -33.98421,-39.89082 c -1.98473,1.39359 -4.2343,2.36571 -6.61791,2.85016 l 2.29641,21.37209 -3.4107,-1.3952 -2.10907,-19.63294 c -0.092,0.002 -0.18249,0.003 -0.27454,0.003 -1.86684,0 -3.76274,-0.28421 -5.62797,-0.91722 -0.57975,-0.197 -1.14174,-0.42308 -1.68758,-0.67176 l -8.05357,13.95848 -3.02796,-1.24018 8.27481,-14.34442 c -2.30609,-1.63096 -4.14548,-3.77544 -5.41803,-6.21543 l -26.56207,10.86449 -4.28436,-1.75208 29.62071,-12.11597 c -1.03838,-3.39757 -1.07714,-7.13749 0.15342,-10.75952 0.16795,-0.49414 0.36497,-0.96566 0.57006,-1.43396 l -25.97424,-14.45261 6.5194,-3.62687 21.78032,14.24268 c 2.99566,-3.76898 7.41729,-6.14277 12.18128,-6.56908 l 0.10174,-26.62671 3.2492,-1.80698 -0.1082,28.45307 c 1.321,0.12757 2.64684,0.39079 3.95815,0.83809 2.85355,0.96728 5.2953,2.59986 7.21382,4.66359 l 75.96708,-58.59847 h 5.3066 l -77.17827,59.53184 109.86247,-59.53184 z m 238.88589,106.18873 21.8901,18.92243 -2.8551,1.81666 -23.0561,-19.92845 z m -464.11929,0.0937 -0.39404,3.66564 -38.47205,15.73639 4.5815,-5.37735 z m 228.98969,11.00336 15.60974,5.50491 -2.73728,2.4739 -14.25806,-5.02854 z m -210.46342,-18.58169 1.63591,2.83562 -18.04665,7.38132 0.39404,-3.66563 z m 344.58187,-79.82685 98.72605,85.33822 -4.0211,0.80902 -97.12893,-83.95593 z m -321.05583,70.20415 4.28436,1.75208 -23.94592,9.79387 -1.6359,-2.83401 z m 561.86188,-89.08136 14.2354,86.07781 -3.2767,0.0581 -14.0352,-84.86185 0.7833,-1.27409 z m -554.83217,45.04854 1.37106,0.7622 -3.33479,1.85542 -1.10137,-0.61363 z m -43.26349,-24.07207 40.90895,22.76246 -3.06511,2.00399 -37.82931,-21.04753 z m 46.49654,21.95828 1.51964,0.99473 -3.20076,1.78114 -1.28062,-0.83809 z m -46.52884,-30.42315 44.34871,28.99888 -2.96175,1.93617 -41.37243,-27.05141 z m 87.65097,3.53484 -0.0226,5.86178 -3.24921,1.80698 0.021,-5.54366 z m -125.32041,-16.04644 35.31005,19.64748 0.0145,3.71731 -41.99256,-23.36479 z m 373.15289,0 20.02168,17.30599 -2.42398,2.19131 -22.55709,-19.4973 z m -247.77112,0 -0.0501,13.18983 -3.25082,2.1251 0.0581,-15.31493 z m -106.84743,0 16.74341,10.94685 0.0145,3.88363 -22.68306,-14.83048 z"
                    id="use570"
                    style="stroke-width:0.264583"/>
        </mask>
    </defs>
    <g
            id="layer1"
            transform="translate(1292.1899,2100.0682)">
        <g
                id="85207"
                transform="matrix(0.26458333,0,0,0.26458333,-1292.1899,-2100.0682)"
                style="opacity:0.402287;fill:none;fill-rule:evenodd;stroke:none;stroke-width:0.2">
            <path
                    d="M 2842.3631,7520 H 2830 l 15.165,-64.1188 14.249,-28.8812 c 1.5027,0.5861 3.0294,1.0876 4.586,1.5166 L 2842.3631,7520"
                    id="Fill-7"
                    fill="url(#linearGradient-2)"
                    style="fill:url(#linearGradient-2)"/>
            <mask
                    id="mask3099"
                    fill="#ffffff">
                <polyline
                        id="use3097"
                        points="2621 7520 2608.26849 7520 2510 7181 2525.2059 7189.49935 2621 7520"
                        transform="scale(0.26458333)"/>
            </mask>
            <g
                    id="Clip-11"/>
            <polyline
                    id="Fill-10"
                    fill="url(#linearGradient-6)"
                    mask="url(#mask-4)"
                    points="2621 7520 2608.26849 7520 2510 7181 2525.2059 7189.49935 2621 7520"
                    style="fill:url(#linearGradient-6)"/>
            <mask
                    id="mask3105"
                    fill="#ffffff">
                <path
                        d="m 458.88961,1784.7577 7.91307,4.4327 70.79936,84.9458 23.96045,-31.8797 2.85516,1.5987 -24.6807,32.8405 94.15745,112.971 h -4.22138 l -91.93695,-110.3098 -82.90151,110.3098 h -1.33715 v -3.6172 l 82.10375,-109.2488 z m 499.24039,57.536 28.21413,121.2242 c -0.74932,1.6391 -1.45988,3.2006 -2.20274,4.8413 L 955.5962,1845.7106 Z m -148.47502,-107.844 2.18659,0.6896 -48.68637,204.8459 c -0.61206,-0.089 -1.23057,-0.134 -1.85554,-0.134 -0.22447,0 -0.44894,0.01 -0.67503,0.018 l 7.09592,-29.724 -76.71155,-79.8414 -7.01356,-11.9787 84.61978,88.0737 z m -37.05416,176.0958 19.02205,19.7976 -2.70013,1.87 -17.21335,-17.9148 z m -194.71964,-240.1878 40.66187,73.7422 c 2.26249,-1.0254 4.73976,-1.5809 7.27679,-1.5809 1.86038,0 3.75306,0.2987 5.61344,0.9301 1.50994,0.5135 2.88907,1.2257 4.15194,2.0734 l 1.78447,-2.0992 1.73603,2.9632 -1.01093,1.1885 c 4.64448,4.578 6.56139,11.5604 4.32312,18.1521 -0.75094,2.2123 -1.90883,4.1711 -3.35094,5.836 l 37.85031,39.395 7.01517,11.9787 -47.20711,-49.1324 c -1.4518,1.1562 -3.06994,2.0799 -4.80113,2.7291 l 35.3908,122.2109 -4.02759,-2.2559 -34.4913,-119.104 c -0.98994,0.1728 -1.99764,0.2616 -3.01504,0.2616 -1.87006,0 -3.77082,-0.3004 -5.64088,-0.935 -1.39206,-0.4731 -2.66945,-1.1175 -3.85157,-1.878 l -50.42563,67.0972 -2.85516,-1.5986 50.726,-67.4945 c -4.07281,-3.853 -6.1399,-9.5097 -5.32921,-15.2148 l -29.90333,-7.0261 -125.00389,-29.3768 v -3.3313 l 155.64846,36.5804 0.01,-0.034 c 1.25156,-3.6802 3.61095,-6.6595 6.57108,-8.7281 l -41.05268,-74.4511 z m 375.36694,150.9595 4.17131,17.9277 -2.53379,3.4169 -4.50561,-19.3584 z m -14.05781,-46.0933 3.59318,1.1319 9.88164,42.4616 -2.86646,1.9847 z m -485.6929,-1.9992 9.03544,10.8403 -7.91469,-4.4311 -1.12075,-1.3451 z m 475.40268,-42.2161 4.26821,4.0402 8.98699,38.6087 -3.59318,-1.132 z m -249.14218,-37.446 3.3574,1.0577 -42.37368,49.8413 -1.73442,-2.9632 z m 149.51017,-41.2844 c 0.65727,0.3585 1.34523,0.6588 2.05417,0.8994 l -18.92838,79.6363 -2.18498,-0.6879 z m 80.58896,-17.39 22.33262,95.9492 -4.26982,-4.0403 -21.31846,-91.5908 z m -192.01789,18.8869 -33.04756,38.8719 -3.35579,-1.0561 31.75886,-37.3556 z m -197.16139,-87.1581 32.09315,58.2044 26.0889,-13.1236 0.77355,3.2426 -25.29437,12.7215 22.35845,40.5481 -3.20721,0.8994 -22.05001,-39.9909 -97.94281,49.2632 v -3.6301 l 96.37473,-48.4736 -31.54731,-57.2113 z m 261.91936,5.9829 1.99603,2.6564 -64.52865,75.9012 -4.64611,0.4602 z m 116.40448,15.6443 10.3096,44.2993 -3.25566,0.3181 -9.83158,-42.2452 z m -63.04132,-176.7594 31.71041,37.3329 c 2.89231,-2.0249 6.36114,-3.1602 9.9624,-3.1828 l 2.18336,-25.3348 2.98597,3.1036 -1.94112,22.5154 c 0.8446,0.1534 1.69081,0.3488 2.52895,0.633 9.18723,3.1183 14.10464,13.0914 10.98624,22.2764 -2.48373,7.3119 -9.31158,11.919 -16.62874,11.919 -1.28063,0 -2.5774,-0.1421 -3.86772,-0.4344 l 24.51114,105.3135 -2.77604,2.3722 -23.53573,-101.1198 -33.76781,141.4773 c -0.55876,-0.1276 -1.12721,-0.218 -1.70211,-0.2697 l -0.0194,-6.4851 33.98582,-142.3945 c -1.04,-0.4619 -2.01218,-1.0206 -2.91653,-1.6568 l -31.39066,36.9227 -0.0145,-4.9881 28.93761,-34.0387 c -0.88497,-0.906 -1.67305,-1.8926 -2.33839,-2.9584 l -26.67027,13.4143 -0.0113,-3.6237 25.22978,-12.6892 c -0.53454,-1.3564 -0.88659,-2.7823 -1.07069,-4.2437 l -24.20753,0.7525 -0.01,-3.2458 24.11709,-0.7477 c 0.0953,-1.5227 0.36821,-3.0552 0.88336,-4.5699 0.87528,-2.574 2.30125,-4.7976 4.08411,-6.6175 l -29.22183,-34.4037 z m -224.19825,183.6644 -1.23056,4.2502 -28.70991,14.4397 -0.77354,-3.241 z m 64.81773,-32.6015 -5.20971,6.2509 -57.93174,29.1378 1.23056,-4.2486 z m 157.29728,-50.2661 0.0145,4.9882 -47.71581,56.1246 -1.99603,-2.6564 z m -342.07229,-265.3176 2.24795,9.4209 -21.76578,202.1718 c 0.25031,0.073 0.50223,0.1292 0.74932,0.2131 3.5092,1.1918 6.38697,3.3863 8.44114,6.1509 l 53.34539,-37.7221 0.8123,3.3992 -52.46365,37.0988 c 0.9205,1.8844 1.4938,3.9401 1.69405,6.0587 l 60.62057,-1.8812 0.7687,3.2199 -61.17772,1.8991 -0.21155,0.01 c -0.12435,1.35 -0.3892,2.7064 -0.8446,4.0467 -1.16274,3.4251 -3.27989,6.2542 -5.95257,8.297 l 41.40312,75.0873 -2.35131,2.4497 -41.80523,-75.8156 c -2.43045,1.2305 -5.14188,1.8974 -7.92438,1.8974 -0.76546,0 -1.53739,-0.052 -2.30932,-0.155 l -11.58377,36.2203 v -10.6433 l 8.41208,-26.3069 -0.16633,-0.047 c -3.40249,-1.1558 -6.2117,-3.2555 -8.24733,-5.9045 l 0.002,-21.4682 0.28969,-0.3671 c 2.23626,-2.7311 5.24013,-4.7009 8.56811,-5.7014 l -8.8578,-32.1898 v -12.2177 l 12.04402,43.768 c 0.61367,-0.066 1.23218,-0.098 1.85553,-0.098 0.56199,0 1.12721,0.027 1.69566,0.082 z m 256.22841,279.6459 1.97988,2.6338 -73.29601,36.8662 5.2097,-6.2509 z m 85.75668,-43.1334 0.0113,3.6237 -81.62412,41.0551 -1.97988,-2.6338 z m -223.45701,-13.6161 -3.21367,3.3459 -58.43075,1.8134 -0.7687,-3.2215 z m 38.05379,-1.1804 -0.94795,3.2748 -36.90882,1.1449 3.21368,-3.3443 z m 54.83112,-1.702 2.38361,3.1715 -55.65634,1.7262 0.94957,-3.2732 z m 54.42576,-1.6891 -2.77603,3.3313 -46.35121,1.4388 -2.38361,-3.1715 z m 76.08497,-2.3625 0.01,3.2458 -75.68285,2.3479 2.77603,-3.3314 z m -211.67299,-97.4122 2.10746,2.4803 -86.43171,61.1192 -0.81069,-3.3992 z m 265.60783,1.5341 -4.58797,53.1969 -2.98597,-3.1053 4.30051,-49.872 z m -67.03178,26.3909 12.93545,15.2277 0.0145,5.027 -15.05744,-17.7259 z m -10.03183,-11.8124 8.46537,9.9683 -2.10746,2.5288 -9.90587,-11.6622 z m -33.59663,-34.5425 7.42859,3.7351 24.43201,28.7647 -3.54796,0.8332 z m -75.31627,-37.8804 3.2815,1.6504 -78.84808,55.7563 -2.10908,-2.4803 z m 189.16596,20.857 -2.98275,34.5829 -3.27342,0.2196 2.79057,-32.3658 z m -156.52213,-38.2243 46.14127,54.3224 -7.4286,-3.7367 -40.38733,-47.5499 z m 160.47382,-45.3506 3.15877,1.1159 -6.84239,79.3569 -3.4656,2.4368 z m -240.33607,-43.6614 4.36995,0.1357 72.45788,85.3043 3.73691,-2.6419 -4.02921,7.3071 -0.25839,-0.3036 -23.56964,16.6665 -3.2815,-1.6503 24.7453,-17.4966 z m 137.55014,42.502 1.03677,3.2393 -57.15012,40.4124 3.59157,-6.5125 z m -296.9032,-29.1248 2.89715,3.4072 -3.19753,29.6949 -2.24796,-9.4192 z m 330.07027,5.6728 3.74498,1.3226 -33.83241,23.9251 -1.03677,-3.241 z m 71.0529,7.9869 3.19914,0.654 -1.26286,14.6319 -3.15877,-1.1175 z m -62.49387,-213.138 63.4499,135.4992 c 1.88783,-0.6798 3.8984,-1.0415 5.94772,-1.0415 1.35168,0 2.71951,0.1566 4.08088,0.4844 l 38.50758,-113.4134 1.48572,5.7068 -36.92497,108.7482 c 0.39243,0.1744 0.76709,0.373 1.14175,0.5732 l 46.1235,-69.6147 1.09653,4.2147 -44.51505,67.1893 c 1.87491,1.5114 3.39939,3.3717 4.50399,5.458 l 53.16613,-22.1326 0.82522,3.1682 -52.74626,21.9567 c 1.07069,3.4283 1.12075,7.2053 -0.12112,10.8661 -2.4692,7.2747 -9.24375,11.8528 -16.5157,11.9012 l -3.6061,41.8351 -3.20076,-0.654 3.57542,-41.4653 c -0.8446,-0.1534 -1.69081,-0.3504 -2.53057,-0.633 -3.10063,-1.0545 -5.69902,-2.8986 -7.68214,-5.2207 l -50.41271,35.6503 -4.35703,-0.8914 52.89806,-37.4056 c -2.18013,-3.7851 -2.95367,-8.3551 -1.8733,-12.8491 l -85.07357,-28.8826 0.86075,-3.1311 85.25444,28.9439 c 1.53417,-3.446 4.07765,-6.1799 7.15568,-7.982 l -61.83822,-132.0629 z m -1.38075,200.0741 4.35703,0.8914 -5.40511,3.8223 -3.74498,-1.3242 z m -336.13427,-10.9339 3.09418,1.5567 -0.96088,8.9186 -2.89554,-3.4056 z m 0.85268,-7.9255 3.25081,0.1017 -0.73639,6.8469 -3.09418,-1.5567 z m 70.09203,-102.8929 89.58079,105.4637 -4.36995,-0.1357 -4.03082,-4.7459 c -0.79131,-1.1126 -1.68274,-2.1639 -2.66784,-3.1408 l -80.64064,-94.9367 z m -63.84394,75.1633 -2.7405,25.4527 -3.25244,-0.1017 2.25604,-20.9523 z m -38.39776,-158.9351 35.97055,17.075 c 2.55156,-4.3099 6.79555,-7.2327 11.54823,-8.221 l -0.32782,-2.9357 3.54473,2.5078 0.008,0.068 c 0.0291,0 0.0581,0 0.0856,0 l 17.15845,12.1321 -0.19864,0.084 c 0.95118,2.9729 1.12883,6.2106 0.36013,9.4144 l 25.52207,8.6634 9.30835,6.5837 -35.87365,-12.179 c -0.86721,1.9475 -2.06225,3.6576 -3.4866,5.1125 l 37.05577,43.6259 -2.12684,2.5046 -37.40136,-44.0328 c -2.92299,2.0476 -6.43543,3.1941 -10.07705,3.1941 -0.0856,0 -0.17118,0 -0.25677,0 l -11.96166,111.1187 -3.73529,4.3988 12.47358,-115.876 c -0.72348,-0.147 -1.44534,-0.3262 -2.16398,-0.5684 -9.18401,-3.1183 -14.10141,-13.0914 -10.98302,-22.2764 l 0.15019,-0.3811 -34.27005,-16.2677 z m 760.41039,-547.90249 26.4216,159.76027 c 0.4183,-0.0307 0.8365,-0.0452 1.258,-0.0452 1.8717,0 3.7741,0.30197 5.6458,0.93659 0.457,0.15341 0.8946,0.33911 1.3307,0.52805 l 235.5527,-87.07415 c -0.8705,-3.24416 -0.8269,-6.76931 0.3342,-10.18787 2.4822,-7.31512 9.3116,-11.9222 16.6288,-11.9222 1.8733,0 3.7773,0.30197 5.649,0.9366 9.184,3.11821 14.103,13.09293 10.9846,22.27801 -2.4837,7.31189 -9.3132,11.91896 -16.6304,11.91896 -1.8717,0 -3.7756,-0.30036 -5.6473,-0.93659 -0.5572,-0.18894 -1.0982,-0.40371 -1.623,-0.6427 l -277.2029,485.09742 0.914,0.8413 -1.8297,0.7606 -3.2346,5.6631 0.3052,-4.4423 -249.34083,103.7955 -0.82522,-3.1666 248.99845,-103.6567 -142.0202,-130.61123 -120.58873,182.00763 -1.09652,-4.2147 119.26775,-180.01653 -63.1205,-58.05105 -66.8622,196.92038 -1.48572,-5.7051 66.10322,-194.69198 c -3.0167,-1.34191 -5.4843,-3.45894 -7.2607,-6.02972 l 25.7224,3.43794 c -3.1362,2.62892 -7.1396,4.11778 -11.3012,4.11778 -0.8075,0 -1.6214,-0.0565 -2.4353,-0.17117 l 62.4535,57.43742 62.8282,-94.82688 c -0.78,2.47713 -1.1385,5.02208 -1.1046,7.53635 l -59.3061,89.51252 141.7861,130.39324 25.5947,-372.88865 c -0.9463,-0.15502 -1.8926,-0.36979 -2.8309,-0.6863 -0.935,-0.31812 -1.8103,-0.72182 -2.6533,-1.17235 l -87.5605,132.15659 c -2.3401,0.95436 -4.5412,2.28012 -6.5017,3.94338 l 91.3588,-137.89081 c -0.5684,-0.45699 -1.1078,-0.94143 -1.6084,-1.45979 l -146.1124,114.63261 0.9512,-4.86706 143.1345,-112.29758 c -0.4894,-0.7412 -0.9222,-1.5147 -1.2952,-2.32049 l -127.8235,42.83785 0.7138,-3.65756 126.0229,-42.23553 c -0.6686,-2.63215 -0.7429,-5.44355 -0.1002,-8.2291 l -108.5915,-38.29054 0.6282,-3.21833 108.204,38.15489 1.1046,-0.40693 c 0.4328,-0.88977 0.9237,-1.7327 1.4841,-2.51912 l -100.6785,-87.02408 0.7154,-3.66725 102.0883,88.24327 c 2.1672,-2.07665 4.8253,-3.56713 7.7112,-4.32609 l -26.5023,-160.23988 z m -452.50156,659.42169 26.74295,9.0785 -0.86075,3.1311 -25.49946,-8.657 z m -177.92779,-60.4054 175.43759,59.5592 0.38112,3.5526 -178.07635,-60.4555 z m -28.3627,-9.6292 25.93226,8.804 -2.25603,2.6564 -14.36788,-4.8784 z m 103.52394,-82.54296 -4.67517,5.50329 -129.89707,55.08467 -3.11355,-2.201 z m 826.60891,-429.69949 -233.0544,86.15047 c 5.8605,4.44397 8.5154,12.28552 6.022,19.63294 -2.4353,7.1714 -9.0532,11.72195 -16.2105,11.89474 l -25.3428,369.1955 274.3396,-480.08335 c -2.5047,-1.75369 -4.4684,-4.10486 -5.7539,-6.7903 z M 631.84346,922.84288 529.46126,1026.049 c 0.28746,0.344 0.562,0.6993 0.822,1.0642 l -9.46177,-6.6918 c 0.27614,0.079 0.55391,0.1647 0.83167,0.2584 2.05417,0.6976 3.88064,1.752 5.46487,3.0504 l 96.82367,-98.20512 z m 135.14554,-48.6835 21.47025,45.85111 78.59455,-33.32982 -1.09653,3.98698 -76.12373,32.2818 42.35269,90.44585 -1.32584,4.8138 -44.01282,-93.99363 -33.83887,14.35087 -0.36174,-3.36689 32.82471,-13.91972 -21.41212,-45.72999 z m -257.51066,90.22465 5.83468,52.14247 -3.54473,-2.5062 -5.43418,-48.56726 z m -55.98093,41.46047 8.93854,4.2437 0.32137,3.7415 -9.25991,-4.3971 z m 296.85315,-69.67131 0.36335,3.36689 -80.421,34.10331 4.67517,-5.50329 z m -248.59634,-40.80642 7.4512,66.59181 -3.14262,1.06739 -6.9425,-62.03318 z m 186.85825,-35.43715 3.97107,1.68263 -56.97249,57.43258 -7.93729,2.69351 z M 480.80073,771.801 l 3.85641,1.63581 3.78536,12.95728 c 1.10783,-0.21638 2.23988,-0.32942 3.38485,-0.32942 1.85877,0 3.74821,0.29713 5.60536,0.92852 0.58137,0.19701 1.14497,0.41985 1.69082,0.67015 l 3.74982,-6.50125 3.00697,1.2757 -3.95331,6.85167 c 4.61704,3.26193 7.36723,8.57791 7.40922,14.19909 l 32.39352,0.88168 -1.50025,3.2038 -31.17426,-0.84778 c -0.15503,0.85101 -0.35044,1.7004 -0.63628,2.54172 -2.29479,6.75801 -8.30388,11.19068 -14.97346,11.82854 l 7.4076,66.21878 2.3933,-0.76219 -1.87169,3.99828 -0.15503,0.0501 0.0258,0.22608 -2.63392,5.62441 -0.54261,-4.84768 -44.57158,14.18293 v -3.40403 l 44.20499,-14.06506 -7.52064,-67.22158 c -1.34845,-0.12435 -2.70336,-0.39079 -4.04213,-0.84455 -2.7405,-0.93014 -5.0902,-2.48036 -6.97157,-4.42945 l -25.67065,21.67246 v -4.24374 l 23.64555,-19.96236 c -0.31168,-0.47315 -0.60075,-0.96082 -0.8656,-1.46303 l -22.77995,9.47252 v -3.509 l 21.53486,-8.95577 c -1.06746,-3.42503 -1.11752,-7.20047 0.12434,-10.85803 0.281,-0.8284 0.63628,-1.60997 1.02224,-2.36571 l -22.68144,-14.43807 v -3.8465 l 24.42071,15.54423 c 1.94596,-2.50943 4.51529,-4.42137 7.41244,-5.56789 z m 164.22042,69.6422 4.58312,1.94423 -145.13377,46.17892 1.87168,-3.99829 z m 257.33786,30.2665 0.82683,3.1715 -34.42831,14.59956 1.09814,-3.98698 z m 93.47918,-39.64213 6.31591,0.84455 -96.74775,41.02603 -0.82523,-3.16988 z m -244.18278,9.34656 14.32104,30.58463 -2.92945,1.39197 -12.08277,-25.80639 z m -46.72102,1.96039 2.87131,2.89536 -13.41185,13.51925 -3.97914,-1.68749 z m -63.6227,-105.13103 8.60425,2.73873 75.41801,60.40383 c 2.47567,-2.5611 5.67319,-4.3051 9.14525,-5.01239 l -3.17007,-29.49462 3.37678,1.07546 3.01666,28.07359 c 0.0888,-0.002 0.17764,-0.002 0.26646,-0.002 1.86845,0 3.76759,0.2826 5.63443,0.91561 4.31827,1.46625 7.67729,4.45205 9.71531,8.15482 l -2.25603,20.16906 c -1.45988,1.62935 -3.20399,2.95996 -5.12412,3.94015 l 3.77889,8.07086 -0.68957,6.17021 -6.10759,-13.04126 c -1.60845,0.47637 -3.28958,0.72828 -4.99816,0.72828 -1.86037,0 -3.75144,-0.29874 -5.61181,-0.93174 -2.07194,-0.70245 -3.91294,-1.76823 -5.50686,-3.0843 l -17.20365,17.34151 -2.86809,-2.90828 17.1859,-17.43033 c -0.85913,-1.14329 -1.55839,-2.39316 -2.11554,-3.70601 l -27.334,8.6974 -2.55317,-2.59016 28.90208,-9.19638 c -0.34559,-1.57445 -0.4764,-3.20218 -0.37143,-4.8493 l -43.54611,-1.18527 -3.28635,-3.33298 47.33954,1.28862 c 0.11143,-0.44084 0.22447,-0.88169 0.37304,-1.31931 0.49417,-1.45333 1.17566,-2.78555 1.98311,-4.0112 z m 47.79171,89.17341 2.5661,2.58532 -38.57379,12.27422 -4.58474,-1.94424 z m 317.0702,-14.30243 31.5506,13.11877 c -0.1551,0.94628 -0.3892,1.89418 -0.7074,2.83239 -0.7267,2.13801 -1.8232,4.0435 -3.1959,5.67123 l -33.666,-4.49888 3.514,-1.49047 c -0.4441,-1.39036 -0.7267,-2.83724 -0.8139,-4.31641 l -62.43575,-2.17677 -33.34147,-4.45528 4.31989,0.15341 91.56553,3.22963 c 0.1469,-1.13845 0.4053,-2.28012 0.7913,-3.40888 0.5814,-1.71332 1.4066,-3.27162 2.4191,-4.65874 z m -136.02079,-168.5368 81.50301,95.66981 30.78506,-10.31706 2.24958,2.66444 -30.76893,10.31061 56.36847,66.16388 c 2.9343,-2.06051 6.4645,-3.21349 10.1207,-3.21349 1.862,0 3.7579,0.30036 5.6215,0.93175 2.8035,0.95275 5.2049,2.5498 7.1072,4.56348 l 10.8539,-8.51493 2.0945,2.47874 -10.9539,8.59406 c 1.8652,2.89375 2.8761,6.31393 2.8131,9.83423 l -30.1568,-12.54067 0.029,-0.0323 v 0 l -57.20824,-67.15539 -57.80577,19.37296 -4.55244,-1.89256 60.08926,-20.13838 -80.95069,-95.02227 z m 30.67364,174.79098 15.23832,2.0379 -15.67757,-0.54742 c 0.17603,-0.48606 0.32298,-0.98343 0.43925,-1.49048 z M 755.15977,810.0996 c 0.15987,0.7735 0.27292,1.55669 0.3246,2.35118 l 119.84747,4.2292 c 0.0194,1.05932 0.16795,2.13156 0.46025,3.19572 l -0.2487,0.11788 -120.164,-4.19044 c -0.14695,1.14167 -0.40695,2.28658 -0.7913,3.41695 -0.18572,0.54581 -0.39566,1.07547 -0.62659,1.59059 z m -189.94274,-5.0899 104.47836,2.84208 3.30734,3.3346 -99.6094,-2.70967 z m 238.35619,-15.13568 5.23393,1.66488 -53.57956,17.95676 0.39727,-3.55259 z m -259.24346,14.56727 14.3598,0.39078 8.1763,3.46701 -24.03635,-0.654 z m 548.04954,-39.56463 -0.9512,4.86706 -43.4622,34.09685 -2.0929,-2.47874 z m -251.4564,12.47931 2.89877,2.44806 -31.18234,10.45109 -5.23392,-1.66649 z m -299.54843,-56.44108 -34.29427,59.4414 -3.00535,-1.2757 33.47874,-58.03167 z m 343.43852,41.73333 4.55243,1.89256 -42.89691,14.37671 -2.90038,-2.44806 z m -414.77888,-39.24651 13.75905,47.07837 -3.85641,-1.63581 -13.24712,-45.32629 z m 258.83812,-9.55325 5.53592,51.51265 -3.37679,-1.07386 -5.40995,-50.34998 z m -109.12769,2.96964 24.98269,20.00758 -8.60425,-2.73711 -21.39435,-17.13482 z m 487.63406,-28.75827 -0.7138,3.65756 -119.53906,40.06038 -2.24957,-2.66445 z m -653.88119,-11.75748 3.0748,1.03026 12.76103,43.66787 -3.34448,0.11788 -12.49135,-42.74581 z m 92.06937,30.85592 3.13616,1.05125 -5.88312,10.19756 -3.82088,0.13565 z m 57.4392,-3.74799 13.85594,11.09864 -5.01591,0.13725 -11.43358,-9.15924 z m 113.83838,-71.1569 4.00821,6.94694 7.7645,72.2679 -3.25082,0.0888 z m -237.39046,-27.79583 85.74214,68.67492 25.78207,-44.68844 -0.85752,7.97235 -22.3633,38.76368 16.75633,13.42074 -0.41019,3.8255 -17.98366,-14.40417 -16.19918,28.08005 -3.13778,-1.05124 16.77571,-29.07962 -86.20885,-69.04311 z m 107.26892,85.91308 14.37433,11.51203 -2.59193,2.07666 -12.19259,-9.7648 z m -133.22541,-23.56017 2.26088,7.73497 -2.26088,-0.75735 z m 352.71134,-97.29109 62.38245,73.22548 -2.76151,1.75692 -60.70939,-71.26186 z m -88.34215,41.89803 2.35454,21.91468 -4.00659,-6.94533 -1.35007,-12.56327 z m -65.0535,-90.1536 1.87168,3.24417 -61.61536,106.79913 0.85752,-7.97235 z m 48.24873,-35.9119 3.41069,1.3952 13.09209,121.85568 -3.00212,2.40446 z m -247.56442,98.31649 24.09449,19.29706 -2.10423,2.47067 -21.99026,-17.61119 z m 558.45759,-29.34929 113.7092,40.09428 -0.6298,3.21672 -116.5563,-41.0987 z m -220.35959,-1.95231 12.76265,14.98065 -1.08683,3.72054 -14.20638,-16.6746 z m 109.58955,-37.10687 107.91004,38.04992 -3.4769,2.21391 -110.64247,-39.01397 z m -155.3287,-11.58632 6.53232,2.67253 37.65975,44.20399 -2.53057,2.02659 z m -233.87319,16.30804 c -0.27292,1.2321 -0.4441,2.4739 -0.52,3.71569 l -57.96566,23.71035 v -3.50415 z m 582.71033,-18.32655 41.9942,36.29946 -0.7154,3.66563 -44.1339,-38.14843 z m -415.90606,-25.41399 3.02958,1.23856 -25.75462,44.64161 -1.87168,-3.24416 z m 175.17113,22.36683 42.83232,15.10338 -6.20934,1.24986 -39.36025,-13.87934 z m -286.25124,-1.42104 -4.58151,5.37895 -11.34475,4.63937 c -0.9205,-0.82679 -1.91529,-1.5906 -2.98113,-2.28335 z M 832.03281,374.91458 714.53827,438.58196 c 1.46957,3.43472 1.85715,7.33773 0.8882,11.17776 l 118.10014,41.64289 -1.3856,2.95189 -117.78038,-41.53147 c -0.85591,1.8635 -2.02026,3.49931 -3.39132,4.9042 l 38.05056,44.66421 -6.53232,-2.67252 -33.98421,-39.89082 c -1.98473,1.39359 -4.2343,2.36571 -6.61791,2.85016 l 2.29641,21.37209 -3.4107,-1.3952 -2.10907,-19.63294 c -0.092,0.002 -0.18249,0.003 -0.27454,0.003 -1.86684,0 -3.76274,-0.28421 -5.62797,-0.91722 -0.57975,-0.197 -1.14174,-0.42308 -1.68758,-0.67176 l -8.05357,13.95848 -3.02796,-1.24018 8.27481,-14.34442 c -2.30609,-1.63096 -4.14548,-3.77544 -5.41803,-6.21543 l -26.56207,10.86449 -4.28436,-1.75208 29.62071,-12.11597 c -1.03838,-3.39757 -1.07714,-7.13749 0.15342,-10.75952 0.16795,-0.49414 0.36497,-0.96566 0.57006,-1.43396 l -25.97424,-14.45261 6.5194,-3.62687 21.78032,14.24268 c 2.99566,-3.76898 7.41729,-6.14277 12.18128,-6.56908 l 0.10174,-26.62671 3.2492,-1.80698 -0.1082,28.45307 c 1.321,0.12757 2.64684,0.39079 3.95815,0.83809 2.85355,0.96728 5.2953,2.59986 7.21382,4.66359 l 75.96708,-58.59847 h 5.3066 l -77.17827,59.53184 109.86247,-59.53184 z m 238.88589,106.18873 21.8901,18.92243 -2.8551,1.81666 -23.0561,-19.92845 z m -464.11929,0.0937 -0.39404,3.66564 -38.47205,15.73639 4.5815,-5.37735 z m 228.98969,11.00336 15.60974,5.50491 -2.73728,2.4739 -14.25806,-5.02854 z m -210.46342,-18.58169 1.63591,2.83562 -18.04665,7.38132 0.39404,-3.66563 z m 344.58187,-79.82685 98.72605,85.33822 -4.0211,0.80902 -97.12893,-83.95593 z m -321.05583,70.20415 4.28436,1.75208 -23.94592,9.79387 -1.6359,-2.83401 z m 561.86188,-89.08136 14.2354,86.07781 -3.2767,0.0581 -14.0352,-84.86185 0.7833,-1.27409 z m -554.83217,45.04854 1.37106,0.7622 -3.33479,1.85542 -1.10137,-0.61363 z m -43.26349,-24.07207 40.90895,22.76246 -3.06511,2.00399 -37.82931,-21.04753 z m 46.49654,21.95828 1.51964,0.99473 -3.20076,1.78114 -1.28062,-0.83809 z m -46.52884,-30.42315 44.34871,28.99888 -2.96175,1.93617 -41.37243,-27.05141 z m 87.65097,3.53484 -0.0226,5.86178 -3.24921,1.80698 0.021,-5.54366 z m -125.32041,-16.04644 35.31005,19.64748 0.0145,3.71731 -41.99256,-23.36479 z m 373.15289,0 20.02168,17.30599 -2.42398,2.19131 -22.55709,-19.4973 z m -247.77112,0 -0.0501,13.18983 -3.25082,2.1251 0.0581,-15.31493 z m -106.84743,0 16.74341,10.94685 0.0145,3.88363 -22.68306,-14.83048 z"
                        id="use3103"
                        style="stroke-width:0.264583"/>
            </mask>
            <g
                    id="Clip-14"/>
            <polygon
                    id="Fill-13"
                    fill="url(#linearGradient-10)"
                    mask="url(#mask-8)"
                    points="7817,1417 1714,1417 1714,7520 7817,7520 "
                    style="fill:url(#linearGradient-10)"/>
            <path
                    d="m 5034.3007,1689.2335 c -7.9577,-1.4769 -16.3853,-1.0314 -24.5933,1.7577 -0.8604,0.2929 -1.6782,0.6652 -2.5142,0.9948 L 4724.511,1162.1335 5383.4885,92.602547 c 2.1481,1.068042 4.3938,1.922475 6.6823,2.66095 L 5034.3007,1689.2335 M 4081.5221,3133.58 c -6.7555,-0.6775 -13.7429,-0.01 -20.5838,2.3131 -4.4549,1.5135 -8.5253,3.6435 -12.2051,6.2007 l -653.052,-773.6284 919.8309,-585.5738 c 6.6579,8.6176 15.9582,14.6902 26.3081,17.3877 L 4081.5221,3133.58 m -675.2835,-45.5962 c 0.238,-5.8346 -0.5248,-11.8034 -2.5142,-17.6685 -8.6656,-25.5353 -36.4017,-39.2124 -61.9348,-30.5399 -6.487,2.2032 -12.199,5.6454 -16.9834,9.9603 l -397.4955,-335.6459 c 0.8666,-1.3183 1.6721,-2.6732 2.4044,-4.0647 l 1100.3382,457.6224 c -0.3662,1.184 -0.6896,2.3741 -0.9642,3.5825 l -622.8505,-83.2462 m 365.2192,1591.7667 c -15.0123,5.4318 -25.7528,17.4793 -30.0856,31.73 l -738.451,-151.0516 c 0.7568,-6.8782 0.116,-14.0249 -2.264,-21.013 -5.2787,-15.5445 -17.6303,-26.6522 -32.2275,-31.0403 l 378.2359,-1374.7895 c 7.1338,1.6295 14.6949,1.7028 22.1827,-0.098 l 402.6095,1546.2621 m 636.813,384.6294 -728.0217,-257.4103 70.6492,-49.6975 c 12.5957,14.7817 33.3504,21.2265 52.8542,14.6047 10.6489,-3.6131 19.1864,-10.5706 24.9472,-19.2675 l 579.5711,311.7706 m -344.1043,1003.7945 c -9.3674,-2.7953 -19.6441,-2.8441 -29.5974,0.5309 -5.5167,1.8737 -10.4292,4.6689 -14.7254,8.105 l -319.4806,-332.1488 727.6007,-621.5332 c 3.4967,3.3933 7.4512,6.2373 11.7474,8.4405 l -375.5447,936.6056 m -290.7742,652.9824 c -9.8556,-3.3811 -20.8402,-3.6802 -31.4708,-0.073 -6.7983,2.3131 -12.7299,6.0054 -17.6486,10.6194 l -527.8704,-499.5506 c 6.7189,-8.5749 10.4598,-19.2675 10.4049,-30.3568 l 795.5586,-77.6436 c 0.4211,2.1666 0.9337,4.3393 1.6599,6.4937 4.0216,11.84 12.1563,21.0801 22.256,26.7743 l -252.8896,563.7368 m 683.107,1791.0634 c -2.6241,4.2111 -4.5891,8.7885 -5.8524,13.6099 l -736.4554,-183.5201 88.6761,-298.3193 c 7.8906,1.4037 16.245,0.9765 24.3858,-1.831 8.0126,-2.6853 14.8475,-7.3237 20.1994,-13.1216 l 609.0465,483.1821 m -489.6257,1372.2201 c -3.8141,-6.1641 -8.8914,-11.2907 -14.7804,-15.1357 l 180.1655,-429.5359 445.0954,96.7341 c -0.4455,6.2862 0.3235,12.8165 2.4777,19.1637 0.9214,2.6854 2.087,5.2487 3.3991,7.6289 l -616.3573,321.1449 M 3232.4381,9836.47 c 0.018,-5.2487 -0.7751,-10.6194 -2.5509,-15.8681 -4.0399,-11.901 -12.2356,-21.1777 -22.3902,-26.8536 l 145.3077,-326.6377 534.1621,412.9355 c -4.284,5.4928 -7.3413,11.84 -8.9829,18.6144 L 3232.4381,9836.47 m -691.8886,-988.3354 c 1.8857,-1.5258 3.6738,-3.1126 5.297,-4.8214 l 799.6169,618.1215 -146.1988,328.6518 c -9.819,-3.3568 -20.7425,-3.6009 -31.3183,-0.061 -2.5264,0.8544 -4.9003,1.953 -7.1827,3.1736 L 2540.5495,8848.1346 M 2860.2986,7426.04 c 1.8796,0.7324 3.8019,1.3183 5.7547,1.8126 l -97.8604,633.8981 c -6.1453,-0.4272 -12.4675,0.3662 -18.6616,2.4412 -17.0689,5.798 -28.7918,20.1402 -32.1299,36.6186 l -141.4022,-15.0747 c 0.073,-5.4317 -0.7018,-10.9855 -2.5447,-16.4173 -3.7897,-11.1686 -11.2287,-20.0181 -20.5351,-25.8161 L 2860.2986,7426.04 M 1415.6181,6556.3183 c 3.8934,-8.764 5.2238,-18.6755 3.4052,-28.5625 l 776.4516,-217.6181 c 9.3308,24.3941 36.304,37.2655 61.239,28.7944 1.721,-0.5798 3.3747,-1.2633 4.9797,-2.014 l 587.7852,1003.9227 c -4.6501,3.314 -8.5619,7.4091 -11.7169,12.0048 L 1415.6181,6556.3183 m 413.7161,-1969.2799 280.229,1174.2113 -708.1091,737.1075 c -4.4915,-3.5764 -9.581,-6.3045 -15.0184,-8.1232 L 1829.3342,4587.0384 M 853.64668,3327.2679 1248.4754,2964.097 l 463.934,700.3242 c -5.2116,4.1989 -9.4528,9.3804 -12.5285,15.1784 L 853.64668,3327.2679 m -4.38773,-8.2148 -71.16181,-1036.8367 c 2.6363,-0.4272 5.2604,-1.0253 7.87229,-1.9103 2.59968,-0.8849 5.0285,-2.0079 7.37188,-3.2529 l 450.09339,679.4333 -394.17575,362.5666 M 76.865597,1974.5166 c 6.956904,-4.8825 12.418684,-11.4189 15.994777,-18.883 l 647.925796,239.5405 c -16.29381,12.3587 -23.68399,34.159 -16.7515,54.5922 6.77383,19.9388 25.17912,32.5905 45.06732,33.0665 L 839.562,3309.4041 76.865597,1974.5166 M 975.96615,1017.8197 c 6.31613,0.4516 12.82145,-0.3113 19.19251,-2.4779 10.58184,-3.5947 19.09484,-10.4912 24.84954,-19.13317 L 1742.3851,1387.71 804.094,2198.8725 c -6.02932,-5.7735 -13.41951,-9.9175 -21.43825,-12.0292 l 193.3104,-1169.0236 m 806.88495,316.5737 c 1.5806,4.6506 3.8019,8.8922 6.5236,12.6944 l -39.697,34.3116 -693.5729,-375.8835 726.3557,298.8625 c -2.9231,9.4781 -3.0329,19.9144 0.3906,30.015 m 1126.7622,19.3651 c 10.2889,-12.4137 14.2006,-29.6061 8.9585,-46.0173 l 513.8834,-244.9295 -522.8419,290.9468 m 1198.2474,-296.8729 c 1.7027,5.0046 4.1498,9.5392 7.1583,13.555 l -241.3557,218.2101 -274.3706,-260.0163 c 5.2299,-6.7256 8.6107,-14.7451 9.8129,-23.2345 l 496.1738,36.6979 c 0.091,4.9069 0.9153,9.887 2.5813,14.7878 m 118.9082,-827.70797 c 14.048,-9.25229 22.3658,-25.14476 21.9813,-41.86114 L 5357.4062,58.913457 c 0.4028,1.885857 0.8787,3.76561 1.5134,5.633158 3.2771,9.667304 9.3064,17.625741 16.898,23.31993 L 4719.5984,1152.9239 4226.7689,229.17763 m 149.7748,1480.53177 c -6.4138,-3.3201 -13.5416,-5.1998 -20.8951,-5.4318 L 4209.2363,236.33046 c 2.1297,-0.42112 4.2656,-0.93378 6.3893,-1.65394 1.0924,-0.37229 2.1359,-0.82392 3.1917,-1.26334 l 495.3071,928.39682 -337.5807,547.8994 m -1256.6,332.1183 c 10.0936,-10.2776 15.3235,-24.6993 13.749,-39.3894 l 1173.4711,-236.1776 c 0.2319,0.8239 0.4211,1.66 0.7018,2.4839 0.775,2.2826 1.7576,4.4431 2.8255,6.5303 l -920.8805,586.239 -269.8669,-319.6862 m -194.7811,615.485 c -5.4191,-6.9819 -12.5652,-12.2917 -20.6083,-15.4836 l 171.3046,-586.3183 c 8.0737,1.5807 16.6538,1.1779 25.0021,-1.66 4.4549,-1.5136 8.5253,-3.6314 12.2051,-6.1947 l 269.0736,318.7464 -456.9771,290.9102 m 388.7933,406.631 -443.8078,-141.2379 20.9134,-186.9134 c 3.747,-0.3418 7.5123,-1.0803 11.2348,-2.3375 7.6221,-2.5877 14.1519,-6.9026 19.3817,-12.3221 l 397.0135,335.2369 c -1.8186,2.3802 -3.393,4.913 -4.7356,7.574 m -364.2672,1442.6071 -120.7389,-1121.743 c 2.0078,-0.4089 4.0155,-0.9032 6.011,-1.5746 25.5392,-8.6786 39.215,-36.4049 30.5372,-61.9464 l -0.4211,-1.0619 448.5067,-212.9187 c 5.2177,10.7963 14.0481,18.9318 24.5079,23.4664 l -378.5289,1375.8209 c -3.2465,-0.3479 -6.5541,-0.3723 -9.8739,-0.043 m 234.8383,638.0604 c -11.2104,-13.1583 -28.8895,-19.6642 -46.4099,-16.2587 l -168.4547,-526.8681 0.4577,-0.1281 c 13.1937,-4.4797 23.1835,-14.0738 28.5965,-25.7978 l 662.0654,234.0842 -476.255,334.9685 M 4413.2139,5086.9 3195.536,5168.5045 c -0.4333,-2.661 -1.0375,-5.3158 -1.9284,-7.9524 -1.0314,-3.0393 -2.3495,-5.8955 -3.8874,-8.5809 l 481.4849,-338.6425 743.4612,262.8665 c -0.8848,3.4726 -1.3609,7.0612 -1.4524,10.7048 m -1228.9127,121.2319 c 7.2986,-8.4772 11.5399,-19.298 11.8389,-30.6315 l 1217.678,-81.6045 c 0.4332,2.6549 1.0313,5.3158 1.9284,7.9463 1.5378,4.5529 3.7164,8.703 6.3527,12.4381 l -727.9973,621.875 -509.8007,-530.0234 m 7.7197,958.9062 c -8.0065,-7.7753 -18.4907,-12.6212 -29.6523,-13.6282 l -2.7827,-929.9226 c 1.1594,-0.3052 2.325,-0.6042 3.4845,-1.0009 5.5167,-1.8676 10.4293,-4.6689 14.7255,-8.1049 l 509.4345,529.6388 -495.2095,423.0178 m 519.6441,583.9076 -632.1812,-199.0158 71.6744,-301.5906 c 7.3475,1.0497 15.0367,0.476 22.549,-2.0751 6.2795,-2.13 11.8267,-5.4256 16.5195,-9.5391 l 528.0596,499.7154 c -2.8072,3.8266 -5.0346,8.0439 -6.6213,12.5052 m 84.1969,1198.7518 c -8.8914,3.0516 -16.306,8.3613 -21.8776,15.1357 l -601.6258,-395.9688 562.3559,-758.4684 c 6.5663,3.4849 13.8955,5.4684 21.4687,5.6942 l 49.7358,1131.3492 c -3.3625,0.4272 -6.7311,1.1596 -10.057,2.2581 m -90.4276,390.4151 -891.9666,-222.2748 c 0.421,-2.6853 0.6224,-5.4317 0.5797,-8.1781 l 949.6663,-104.1799 c 0.4149,2.0751 0.9153,4.1501 1.611,6.1642 4.8638,14.3422 15.7385,24.9006 28.8529,29.9051 l -88.7433,298.5635 m 746.2135,213.7304 c 1.8185,5.3707 4.5219,10.1922 7.8295,14.4033 l -992.0118,682.9975 c -5.2238,-6.2252 -11.8695,-11.0466 -19.2963,-14.0371 l 263.4531,-886.2306 737.5417,183.7642 c -0.4394,6.2862 0.3234,12.7555 2.4838,19.1027 m -973.216,734.5687 c 0.8604,-7.0796 0.2502,-14.4033 -2.1909,-21.605 -0.9825,-2.8685 -2.2274,-5.5538 -3.6554,-8.1171 l 993.1591,-683.8519 c 4.6014,4.028 9.9045,7.1406 15.6226,9.2156 l -354.5214,845.2788 -648.414,-140.9204 m 431.2731,575.5219 c -2.2335,0.7324 -4.345,1.7089 -6.3955,2.7464 l -439.4322,-549.0345 c 5.8645,-5.6759 10.1851,-12.6945 12.6262,-20.3844 l 646.7968,140.5544 -179.2074,427.2777 c -10.5696,-4.3942 -22.7015,-5.1266 -34.3879,-1.1596 m -495.3255,-535.1805 c 9.819,3.2957 20.7487,3.6009 31.3244,0 4.0338,-1.3427 7.7319,-3.2346 11.1311,-5.4928 l 438.7853,548.2412 c -0.8299,0.6713 -1.666,1.2816 -2.4471,1.9529 l -536.597,-414.8274 57.8033,-129.8739 m -29.6523,-64.4487 c -4.1985,10.4974 -4.8637,22.3984 -0.9581,33.8722 4.0399,11.9011 12.2235,21.1777 22.372,26.8536 l -56.9124,127.9209 -797.5968,-616.5958 833.0953,427.9491 M 2542.9173,8131.2649 c 3.5639,-1.2206 6.8776,-2.8074 9.9533,-4.6993 l 135.9342,180.2854 -166.2517,455.9013 c -2.2091,-0.5493 -4.4793,-0.9765 -6.7677,-1.2206 l 14.7926,-627.8255 c 4.107,-0.3052 8.2506,-1.0375 12.3393,-2.4413 m 176.0768,-5.1266 c 4.4244,13.0607 13.8223,22.9477 25.3561,28.4405 l -51.8594,142.2021 -132.407,-175.6471 c 7.6953,-7.0186 12.9069,-16.2953 14.9573,-26.4264 l 141.4083,15.0746 c -0.079,5.4318 0.7018,10.9246 2.5447,16.3563 m 174.6305,-699.3842 c 9.1783,-3.1126 16.7881,-8.7153 22.4147,-15.7704 l 243.4001,160.2001 -368.8807,497.5244 c -4.1741,-2.5023 -8.7083,-4.3942 -13.4622,-5.6148 l 97.8543,-633.8432 c 6.1575,0.3723 12.4736,-0.3906 18.6738,-2.4961 M 2285.994,6311.578 l 782.7798,246.4309 -183.9796,774.2021 c -7.3596,-1.0558 -15.0488,-0.4883 -22.5672,2.0628 -1.7148,0.5859 -3.3625,1.2634 -4.9675,2.0141 L 2269.4744,6332.3774 c 7.4268,-5.328 13.0716,-12.5907 16.5196,-20.7994 m 197.6554,-926.7368 c 4.0337,3.2164 8.5374,5.7858 13.3462,7.5862 l -246.7931,852.3401 c -5.2177,-1.0071 -10.6367,-1.1718 -16.0863,-0.3906 l -114.6486,-480.4297 364.1818,-379.106 m -3.808,-72.932 c -12.913,12.7311 -18.2405,32.145 -12.0159,50.4726 2.087,6.1519 5.3092,11.602 9.3124,16.2343 l -360.1601,374.901 -283.4634,-1187.8151 c 2.8927,-1.2939 5.5961,-2.838 8.1103,-4.6079 l 638.2167,750.8151 M 1758.6911,3748.6683 c 8.6229,-2.9234 15.8483,-8.0561 21.3589,-14.5131 l 434.8188,307.5228 -373.2807,439.5266 c -8.037,-5.6331 -17.6791,-8.7945 -27.6872,-8.8495 l -62.2399,-721.923 c 2.3495,-0.4272 4.6989,-0.9643 7.0301,-1.7638 m -328.0058,-952.1684 292.4158,861.3543 c -1.0863,0.4883 -2.1359,1.0437 -3.1673,1.593 l -464.7395,-701.5326 175.491,-161.4147 m -625.35249,-528.4854 570.68589,447.7964 c -7.7808,12.0963 -10.2096,27.47 -5.2238,42.148 7.6648,22.5753 30.2198,35.8495 52.9945,32.6393 L 1250.1536,2950.304 800.85965,2272.0731 c 1.58056,-1.2695 3.07568,-2.6183 4.47316,-4.0586 M 2267.3202,1672.1998 c -4.0827,9.5452 -5.1689,20.4087 -2.4655,31.083 l -1447.65853,510.5301 -3.06959,-1.1291 c -1.1961,-2.4778 -2.56917,-4.8153 -4.13142,-7.0002 l 940.86024,-813.384 516.4648,279.9002 M 1844.792,1364.9394 c 7.9272,-2.6915 14.7193,-7.2322 20.0529,-12.9752 l 400.1868,308.7373 -506.8837,-274.7125 37.134,-32.0962 c 12.7299,12.2184 31.6478,17.107 49.51,11.0466 m 978.5801,-45.6268 -508.1286,-2.6182 -1.666,-434.54653 c 3.6737,-0.35398 7.3596,-1.08635 11.0029,-2.32528 6.9813,-2.368 13.0411,-6.20074 18.033,-10.98557 l 489.8454,425.29428 c -5.2604,7.342 -8.4704,16.0511 -9.0867,25.1813 m 711.2336,-279.4851 -432.8659,921.8726 c -10.057,-3.6313 -21.3589,-4.0402 -32.2764,-0.3295 -12.3881,4.205 -21.9508,12.9202 -27.553,23.6739 L 2358.834,1705.602 c 2.8926,-9.4537 2.9902,-19.8534 -0.4272,-29.9174 -0.4638,-1.3732 -1.0069,-2.6975 -1.5806,-3.9975 l 1162.7062,-647.0136 c 3.9057,6.2129 9.0806,11.3517 15.0733,15.154 m -663.707,1601.1411 c -1.611,0.5493 -3.1733,1.1779 -4.6928,1.8676 l -179.1403,-310.5622 363.0039,-290.7759 c 4.8638,5.029 10.7039,8.9471 17.136,11.4921 l -171.3046,586.3123 c -8.0798,-1.5746 -16.6539,-1.1657 -25.0022,1.6661 m -9.5077,278.9481 -611.5241,-194.6033 c 0.9642,-4.3759 1.3242,-8.9044 1.0313,-13.4817 l 587.6936,-15.9902 c 0.4272,2.3619 0.9764,4.7238 1.7698,7.0674 6.3772,18.7915 23.0859,31.1136 41.6255,32.8835 l -20.5961,184.1243 m 238.8842,2243.4432 -375.1663,-188.7261 207.2852,-375.9629 c 8.6107,4.3515 18.5029,6.1763 28.4501,4.8459 l 168.6195,527.3685 c -14.756,5.8162 -25.2402,18.0957 -29.1885,32.4746 m -570.515,229.5618 c 3.869,-1.3121 7.4268,-3.1065 10.71,-5.2242 l 212.8202,283.2325 -484.6399,581.564 c -3.0635,-2.0995 -6.3344,-3.8694 -9.7885,-5.2304 l 246.842,-852.4682 c 7.7929,1.3671 16.0314,0.8544 24.0562,-1.8737 m -674.777,-845.9013 857.7192,431.4645 -178.5056,323.7631 c -10.8992,-4.9435 -23.6047,-5.9566 -35.8342,-1.8126 -4.1924,1.4281 -8.0309,3.4116 -11.5338,5.7613 L 1848.484,4555.2474 c 2.4593,-2.5206 4.6563,-5.267 6.4992,-8.227 m 367.2757,-500.1121 688.2942,486.7829 c -2.5631,5.2487 -4.1619,10.9551 -4.7173,16.8507 l -1043.5539,-32.3952 c -0.2624,-4.2356 -1.0314,-8.4955 -2.4533,-12.7067 -2.4349,-7.1589 -6.4015,-13.3414 -11.3629,-18.4008 l 373.7932,-440.1309 m -431.7918,-355.8349 984.2311,-334.1933 c 2.4044,5.4134 5.7242,10.1677 9.6847,14.2141 l -563.6557,663.6873 -435.4717,-307.9806 c 6.0659,-10.5278 8.2201,-23.2345 5.2116,-35.7275 m 477.3474,-1979.2706 c 2.3739,5.1754 5.6143,9.7283 9.4284,13.6343 L 1608.1047,2510.991 817.58063,2246.019 c 1.86127,-7.3177 2.06876,-15.1357 0.28682,-22.8806 L 2267.8145,1711.8028 m 535.7487,1578.9441 c -5.7059,1.9347 -10.7893,4.8703 -15.1892,8.4833 l -547.1239,-555.0155 c 2.38,-3.1858 4.3328,-6.6585 5.8706,-10.3082 l 613.2511,195.1526 -40.1852,359.1489 c -5.5045,-0.1037 -11.1128,0.6653 -16.6234,2.5389 m -12.3027,86.1818 c 8.3239,5.8224 18.3443,9.0326 28.7308,8.8739 l 120.8182,1122.4754 c -0.6957,0.2014 -1.3914,0.36 -2.081,0.5981 -9.7518,3.3078 -17.7645,9.417 -23.4703,17.0947 l -687.1408,-485.9651 563.1431,-663.077 m -1325.5039,-631.8596 688.0196,-23.9913 c 0.4088,3.1797 1.1289,6.3534 2.203,9.5026 4.2535,12.5296 13.1144,22.1908 24.044,27.769 l -118.2124,252.4851 -598.3121,-253.7606 c 1.2388,-3.8694 2.0199,-7.8913 2.2579,-12.0048 m 688.9716,-41.3546 c -0.6286,2.6305 -1.0619,5.3158 -1.2389,8.0439 l -416.6514,14.7024 -271.3803,9.5818 c -0.4028,-3.1736 -1.1229,-6.3472 -2.1908,-9.4842 -2.4288,-7.1345 -6.3711,-13.3047 -11.3141,-18.3581 l 159.0629,-186.7303 543.7126,182.2445 m 129.374,-972.4368 c 5.5106,3.8694 11.7657,6.5792 18.393,7.9218 l -99.5752,926.8894 c -5.4313,-0.073 -10.9663,0.7019 -16.4037,2.5511 -13.4683,4.5712 -23.5863,14.4705 -28.92,26.5302 l -540.2829,-181.0911 666.7888,-782.8014 m -72.2176,935.7816 99.5753,-926.8955 c 5.4313,0.079 10.9663,-0.7018 16.4097,-2.545 1.6111,-0.5492 3.1734,-1.1779 4.6929,-1.8675 l 342.8228,594.3256 -438.0775,350.9158 c -6.8837,-7.1223 -15.769,-11.9743 -25.4232,-13.9334 m 6.0232,94.061 c 5.7669,-1.953 10.8809,-4.9253 15.3174,-8.5749 l 548.6313,553.1297 c -2.1237,2.545 -3.9789,5.2914 -5.5473,8.1964 l -706.1929,-299.5155 118.2918,-252.6682 c 9.343,2.7647 19.5831,2.8014 29.4997,-0.5675 M 810.97157,2260.9715 c 1.35476,-2.0628 2.56307,-4.2172 3.58829,-6.4509 l 787.24084,263.8612 -156.7073,183.9778 c -12.3149,-8.6541 -28.4135,-11.547 -43.7614,-6.3411 -7.8051,2.6427 -14.4752,7.0857 -19.7661,12.6884 L 810.97157,2260.9715 m 976.60293,1421.5637 c -4.2657,-9.5819 -11.3447,-17.1802 -19.8943,-22.1909 l 298.6159,-637.8162 706.492,299.6498 c -2.6363,8.2575 -3.1367,17.2656 -0.9947,26.1639 l -984.2189,334.1934 m 929.479,1288.0462 -858.0243,-431.6232 c 1.4768,-3.7778 2.4593,-7.7387 2.9658,-11.8034 l 952.4979,29.5756 91.349,2.8319 c 0.3479,3.7595 1.0802,7.5251 2.3495,11.248 3.2282,9.5269 9.1172,17.3938 16.544,23.0758 l -207.6819,376.6953 m 384.0822,221.3715 c 1.3242,3.8938 3.1306,7.4702 5.2603,10.7658 l -546.0742,128.3481 -0.024,-0.085 c -3.4785,-10.2288 -10.0387,-18.5168 -18.265,-24.2598 l 178.7193,-324.1843 377.9124,190.1054 c -0.4699,6.3533 0.2929,12.8958 2.4716,19.3102 m 24.0623,973.9137 c -10.2035,9.2706 -16.0802,22.551 -15.9948,36.4538 l -646.7236,63.9422 -173.5686,17.168 c -0.4211,-2.1544 -0.9276,-4.3027 -1.6599,-6.4327 -2.4777,-7.3176 -6.5664,-13.6099 -11.6742,-18.7365 l 483.2791,-579.9284 366.342,487.5336 m -562.8136,-826.0174 550.2668,-129.3307 c 4.4609,4.5163 9.7335,8.0927 15.5187,10.5706 l -368.9478,442.7246 -211.6546,-281.6639 c 11.3202,-10.711 17.081,-26.4387 14.8169,-42.3006 m 579.9251,815.929 c -3.5455,1.2084 -6.8287,2.8135 -9.8861,4.6933 L 2764.788,5671.2233 3137.4523,5224.025 c 4.2657,0.885 8.6717,1.2024 13.1205,0.9094 l 2.7766,928.5189 c -3.6798,0.354 -7.384,1.0925 -11.0395,2.3253 m -304.5049,-3468.9387 -588.31,16.0084 c -0.3112,-1.2206 -0.6285,-2.4474 -1.0496,-3.668 -1.367,-4.0341 -3.2649,-7.7448 -5.5045,-11.1503 l 437.0034,-350.0553 178.4568,309.3842 c -12.8275,9.0753 -20.474,23.8448 -20.5961,39.481 m 201.1217,-663.5286 c 1.373,4.0341 3.271,7.7448 5.5106,11.1442 l -361.9299,289.9154 -342.1454,-593.1416 c 6.4137,-4.5346 11.5216,-10.4973 15.0671,-17.284 l 683.0704,279.4425 c -2.8865,9.4537 -2.9902,19.8473 0.4272,29.9235 m -215.3284,-694.9901 c 0.4028,3.3323 1.1351,6.6646 2.2518,9.9664 1.0924,3.2163 2.496,6.2373 4.1437,9.0631 l -479.6359,313.6686 c -8.33,-10.479 -20.6205,-17.0826 -33.863,-18.2605 l -1.2144,-317.0497 508.3178,2.6121 m -945.9437,-4.8642 428.6124,2.2033 1.2083,317.1473 c -3.6737,0.354 -7.3597,1.0925 -11.009,2.3253 -7.9272,2.6976 -14.7193,7.2383 -20.0468,12.9752 L 1870.325,1344.8114 c 4.0521,-6.4022 6.5786,-13.7198 7.3292,-21.3548 m 426.9037,-441.2477 1.6721,434.4367 -428.5392,-2.2032 c -0.3417,-3.8145 -1.074,-7.6533 -2.3617,-11.4433 -2.0138,-5.9139 -5.0712,-11.1565 -8.867,-15.6728 l 411.4643,-416.03583 c 7.5488,6.18853 16.8308,10.03959 26.6315,10.91843 m -867.6358,1904.6237 c 10.1607,-4.5224 18.0818,-12.2001 23.0615,-21.4646 l 598.007,253.6386 -298.4756,637.505 c -8.7084,-3.1431 -18.3565,-3.845 -27.8765,-1.5502 l -294.7164,-868.1288 m 1633.9388,3762.3878 -782.1574,-246.2416 c 0.7506,-3.4544 1.1412,-6.9942 1.1228,-10.5828 l 820.2862,-81.1101 c 0.4211,2.1544 0.9337,4.3088 1.6599,6.4387 5.0834,14.9648 16.721,25.8039 30.6165,30.5155 l -71.528,300.9803 m 640.5295,233.8035 c 1.3426,3.9731 3.2039,7.6289 5.4008,10.9917 l -801.4842,555.1315 c -5.8035,-6.9026 -13.3585,-11.9987 -21.7617,-14.8488 l 183.8453,-773.5797 632.0226,198.9732 c -1.2083,7.58 -0.6652,15.5507 1.9772,23.3321 m -546.5747,780.8972 -243.8395,-160.4687 c 6.1148,-11.486 7.7015,-25.3461 3.1856,-38.6387 -0.9886,-2.9172 -2.258,-5.6697 -3.7226,-8.2575 l 801.9724,-555.461 c 1.4951,1.5563 3.0757,3.0088 4.7478,4.3454 l -562.3437,758.4805 m 597.9338,432.5875 -949.7212,104.1798 c -0.4089,-2.014 -0.8971,-3.967 -1.5623,-5.92 -2.8011,-8.2391 -7.6098,-15.2577 -13.6697,-20.6895 l 369.1919,-497.9516 601.9187,396.152 c -4.0643,7.3237 -6.2673,15.685 -6.1574,24.2293 m -348.4433,1239.7829 c -1.5012,0.4883 -2.9475,1.0986 -4.3633,1.7089 L 2793.1218,8150.4897 c 8.5374,-5.92 14.8047,-14.3423 18.155,-23.9241 l 891.5884,222.2137 -263.3372,885.8644 c -8.1408,-1.6479 -16.7942,-1.2206 -25.2218,1.6478 M 2780.9289,8156.7149 c 1.4951,-0.5493 2.9475,-1.0986 4.3633,-1.7699 l 606.6299,1069.5675 -692.9565,-919.1872 53.8488,-147.6339 c 8.9586,2.3191 18.6799,2.1971 28.1145,-0.9765 m -224.5616,637.5904 c -4.4182,-13.0606 -13.8161,-22.9476 -25.35,-28.4404 l 164.2623,-450.4085 701.8662,930.9663 c -3.2221,2.9294 -6.0049,6.2251 -8.3116,9.887 l -833.425,-428.1322 c 4.2047,-10.4363 4.8638,-22.3984 0.9581,-33.8722 m 754.0674,-5695.4763 -449.1841,213.236 c -7.0911,-11.9803 -18.8874,-20.1097 -32.1055,-22.8561 l 39.9839,-357.3606 441.5132,140.5054 c -2.4654,8.3979 -2.6607,17.5098 -0.2075,26.4753 M 4317.0622,1721.2931 c -8.4277,9.8504 -12.7483,22.8377 -11.5522,36.0998 l -1173.6236,236.2142 c -0.1709,-0.5615 -0.299,-1.1291 -0.4882,-1.6967 -1.7026,-5.0106 -4.1497,-9.5391 -7.1522,-13.5549 l 749.2647,-677.4193 443.5515,420.3569 m -196.0139,-644.1574 c 11.0945,10.18 26.5888,14.8854 41.9734,12.0048 l 175.3689,617.6638 c -5.5655,1.8859 -10.5269,4.7299 -14.8536,8.2087 l -443.3135,-420.1372 240.8248,-217.7401 m 50.6451,9.533 c 24.2881,-9.3865 37.0852,-36.3012 28.6392,-61.1835 -6.0903,-17.937 -21.5908,-29.98453 -39.1234,-32.57834 l 40.0632,-745.542 145.082,1454.47154 -174.661,-615.1677 m -595.212,-41.7879 c 6.3344,-2.1483 11.9366,-5.4867 16.6538,-9.6551 l 273.8153,259.4976 -748.7399,676.9371 c -2.557,-2.3497 -5.3519,-4.3698 -8.3178,-6.1092 l 432.7439,-921.6102 c 10.4475,4.1806 22.3597,4.8397 33.8447,0.9398 m -697.7714,326.0762 -458.3807,255.0728 414.9489,-271.368 c 10.6672,12.2306 26.9732,18.5656 43.4318,16.2952 M 1416.5884,6519.0711 c -2.081,-5.4317 -5.0102,-10.2959 -8.6229,-14.4765 l 704.0814,-732.9269 113.306,474.7781 -0.03,0.01 c -23.2385,7.8913 -36.5908,31.5652 -32.2825,55.0072 l -776.4515,217.612 m 3203.1718,2972.509 c -3.1306,0.3662 -6.2795,1.0986 -9.3857,2.1361 -16.1168,5.4928 -27.492,18.5534 -31.5196,33.8722 l -443.0511,-96.3069 354.3749,-844.9126 c 4.5708,0.7324 9.2759,0.7934 14.0054,0.1831 l 115.5761,905.0281 m -618.2979,-3376.4036 -795.5525,77.6375 c -0.4211,-2.1727 -0.9398,-4.3393 -1.666,-6.4937 -1.55,-4.5468 -3.7164,-8.703 -6.3528,-12.4442 l 495.6002,-423.3535 319.8467,332.5394 c -7.6221,8.8495 -11.9366,20.244 -11.8756,32.1145 M 3741.8177,4741.3369 c 1.0374,3.0332 2.3556,5.8834 3.8873,8.5748 l -75.879,53.3655 -652.4356,-230.6848 722.1755,147.7254 c -0.7628,6.8843 -0.116,14.0249 2.2518,21.0191 m 291.6957,-1582.014 -1100.3321,-457.6224 c 2.9598,-9.5208 3.1001,-20.0242 -0.3539,-30.192 -0.775,-2.307 -1.7697,-4.4736 -2.8377,-6.5792 l 458.0145,-291.5754 653.8453,774.5684 c -3.332,3.3994 -6.1331,7.2382 -8.3361,11.4006 m 943.1243,-1423.0711 -574.1582,10.2654 c -0.4149,-3.0699 -1.1106,-6.1398 -2.142,-9.1791 -3.1733,-9.3621 -8.9341,-17.1192 -16.2022,-22.7768 l 334.9017,-543.5417 280.1313,525.0799 c -13.81,8.8068 -22.201,23.979 -22.5306,40.1523 M 5451.3915,33.152289 C 5442.7198,7.610832 5414.9959,-6.0662062 5389.4568,2.6062933 5368.7569,9.6370599 5355.8561,29.197483 5356.3321,49.960215 L 4247.6762,178.36936 c -0.4028,-1.87976 -0.8788,-3.76562 -1.5134,-5.63316 -8.6657,-25.53536 -36.4017,-39.20629 -61.9348,-30.5399 -25.533,8.6664 -39.215,36.40497 -30.5432,61.94033 6.0903,17.937 21.603,29.98451 39.1295,32.58443 l -40.6124,755.68534 c -4.5892,0.1831 -9.2271,0.9826 -13.804,2.53889 -17.612,5.98101 -29.5669,21.02521 -32.4595,38.15661 l -496.4056,-36.71017 c -0.2075,-4.47357 -1.0008,-8.99597 -2.5082,-13.45123 -8.6778,-25.54145 -36.3955,-39.21239 -61.9347,-30.53989 -25.35,8.60537 -38.9831,35.98996 -30.7019,61.37269 l -599.3556,285.6738 c -11.0945,-20.6346 -35.7305,-30.8817 -58.6455,-23.1003 -6.9691,2.3681 -13.029,6.1947 -18.0208,10.9734 L 2348.5145,862.02597 c 8.861,-12.35877 11.8634,-28.64183 6.6091,-44.1437 -8.6778,-25.53535 -36.4017,-39.20629 -61.9408,-30.53379 -25.5331,8.6603 -39.2028,36.39887 -30.5433,61.93422 2.0138,5.92 5.0834,11.16256 8.867,15.67275 l -411.4582,416.03585 c -12.6139,-10.3325 -30.0794,-14.1592 -46.6539,-8.5321 -12.3516,4.1928 -21.9021,12.8775 -27.5164,23.5884 L 1026.0925,983.42265 c 2.917,-9.47811 3.039,-19.9144 -0.3967,-30.02723 -8.6717,-25.53536 -36.40169,-39.20629 -61.93475,-30.5399 -25.53916,8.67861 -39.20887,36.40497 -30.53715,61.94643 5.46789,16.11825 18.53954,27.48835 33.85084,31.52245 L 773.76433,2185.3481 c -6.31003,-0.4578 -12.82145,0.3112 -19.19251,2.4778 -1.26933,0.4333 -2.48984,0.946 -3.69814,1.4709 L 96.003186,1947.1809 c 2.422712,-9.0204 2.300661,-18.822 -0.927587,-28.3306 -8.67172,-25.5415 -36.395594,-39.2124 -61.928654,-30.5399 -25.5391617,8.6664 -39.2088685,36.405 -30.5432508,61.9342 8.6717198,25.5415 36.3955938,39.2185 61.9347558,30.546 1.550048,-0.531 3.051274,-1.123 4.509783,-1.7882 l 770.666337,1348.833 -2.55087,2.3375 5.08342,2.1178 9.00126,15.746 -0.84215,-12.3527 846.01447,352.2402 c -2.9719,9.5269 -3.1123,20.0304 0.3418,30.2103 6.8653,20.2257 25.6978,32.9568 45.9155,33.091 l 62.246,721.9169 c -2.3556,0.4273 -4.705,0.9643 -7.0362,1.7577 -25.5331,8.6786 -39.2089,36.405 -30.5433,61.9403 8.1164,23.8937 32.9111,37.3998 56.9856,31.9314 l -446.6637,1919.4115 c -7.2865,-1.007 -14.8903,-0.4272 -22.3232,2.0995 -25.533,8.6664 -39.2027,36.3989 -30.5371,61.9342 8.6717,25.5415 36.4017,39.2185 61.9347,30.5399 10.3561,-3.5154 18.7227,-10.1983 24.4774,-18.5717 l 1422.1316,796.5334 c -4.8088,10.8268 -5.773,23.3931 -1.6538,35.5017 3.7836,11.1686 11.2225,20.0669 20.5289,25.8161 l -307.3792,617.499 c -10.3194,-4.028 -22.0363,-4.5773 -33.326,-0.7323 -25.5392,8.6663 -39.2089,36.3744 -30.5371,61.9464 6.2551,18.4313 22.4634,30.6375 40.5819,32.7736 l -14.7926,627.8255 c -4.107,0.2441 -8.2506,1.0375 -12.3393,2.3802 -25.5331,8.6664 -39.2028,36.4355 -30.5372,61.9464 8.6717,25.572 36.4017,39.2429 61.9348,30.5765 2.5203,-0.8544 4.9003,-1.953 7.1827,-3.1736 l 620.208,945.0644 c -15.6286,12.5114 -22.6099,33.8112 -15.8178,53.8293 8.6717,25.572 36.4017,39.2429 61.9409,30.5765 17.2397,-5.8589 29.0359,-20.4453 32.2336,-37.1068 l 645.0881,62.1906 c -0.3173,5.981 0.4455,12.1451 2.496,18.2482 8.6717,25.511 36.4017,39.1819 61.9408,30.5155 25.5331,-8.6664 39.2028,-36.3744 30.5372,-61.9464 -0.2258,-0.6713 -0.5187,-1.2817 -0.7628,-1.892 l 617.413,-321.6942 c 12.5224,15.3188 33.6433,22.0933 53.4827,15.3798 25.5331,-8.7274 39.2089,-36.4354 30.5433,-61.9464 -6.5969,-19.4689 -24.221,-31.9802 -43.5051,-33.0788 l -115.7958,-906.6759 0.5614,-0.1221 c 25.5331,-8.7274 39.215,-36.4354 30.5433,-61.9464 -8.6718,-25.572 -36.4017,-39.2429 -61.9348,-30.5765 -8.0248,2.7464 -14.8719,7.3237 -20.2299,13.1827 l -609.0526,-483.1821 c 7.5366,-12.0231 9.8068,-27.1588 4.8881,-41.6842 -6.5175,-19.1637 -23.8182,-31.675 -42.8643,-33.0177 l -49.7357,-1131.6788 c 2.7217,-0.4272 5.4373,-1.0375 8.1286,-1.953 25.5391,-8.6725 39.2149,-36.405 30.5432,-61.9464 -4.0216,-11.8278 -12.1563,-21.074 -22.2499,-26.7621 l 252.8896,-563.743 c 9.8495,3.3811 20.8341,3.6802 31.4647,0.073 25.5331,-8.6664 39.2028,-36.405 30.5372,-61.9404 -4.2474,-12.5052 -13.0778,-22.1359 -23.9708,-27.7263 l 375.5447,-936.5995 c 9.3674,2.7892 19.6441,2.8441 29.5973,-0.537 25.5392,-8.6725 39.215,-36.405 30.5433,-61.9343 -8.6718,-25.5414 -36.4017,-39.2184 -61.9409,-30.5459 -10.6367,3.613 -19.1742,10.5644 -24.9411,19.2613 l -588.371,-316.5004 c 4.522,-10.6438 5.3458,-22.9111 1.3364,-34.7328 -7.799,-22.9415 -30.9704,-36.2523 -54.1174,-32.4379 l -402.6338,-1546.372 -4.3451,1.1291 c 16.6173,-5.6514 28.1572,-19.3956 31.8309,-35.3369 l 622.8504,83.2584 c -0.2379,5.8346 0.5249,11.8034 2.5143,17.6685 8.6656,25.5353 36.3956,39.2063 61.9348,30.5399 25.533,-8.6664 39.2027,-36.405 30.5371,-61.9403 -5.3092,-15.6362 -17.7767,-26.7926 -32.5083,-31.1258 l 260.3591,-1333.557 c 6.2734,0.4455 12.7421,-0.3235 19.0766,-2.4779 19.5037,-6.6218 32.0445,-24.3635 33.0453,-43.7531 l 574.4511,-10.2654 c 0.4272,2.5633 1.013,5.1266 1.8735,7.6716 8.6778,25.5354 36.4017,39.2063 61.9347,30.546 25.5392,-8.6725 39.2089,-36.405 30.5433,-61.9464 -4.8454,-14.263 -15.6347,-24.8091 -28.6576,-29.8381 L 5398.9706,97.234797 c 7.1522,0.927671 14.5973,0.323464 21.8838,-2.14829 25.533,-8.672499 39.2149,-36.404968 30.5371,-61.934218"
                    id="Fill-16"
                    fill="#232323"/>
        </g>
    </g>
</svg>
