<?xml version="1.0" encoding="UTF-8"?>
<svg width="23px" height="27px" viewBox="0 0 23 27" version="1.1" xmlns="http://www.w3.org/2000/svg" xmlns:xlink="http://www.w3.org/1999/xlink">
    <g id="Page-1" stroke="none" stroke-width="1" fill="none" fill-rule="evenodd">
        <g id="Artboard" transform="translate(-525.000000, -2581.000000)" fill="#FEFEFE">
            <g id="ic_publishing" transform="translate(525.462800, 2581.464700)">
                <path d="M19.29,23.894 L11.946,23.894 L11.946,12.328 L14.053,14.435 C14.232,14.614 14.468,14.704 14.703,14.704 C14.938,14.704 15.173,14.614 15.352,14.435 C15.712,14.075 15.712,13.495 15.352,13.135 L11.677,9.46 C11.317,9.1 10.737,9.1 10.377,9.46 L6.702,13.135 C6.342,13.495 6.342,14.075 6.702,14.435 C7.061,14.794 7.642,14.794 8.001,14.435 L10.108,12.328 L10.108,23.894 L2.757,23.894 C2.017,23.894 1.849,23.389 1.838,22.975 L1.838,2.757 C1.838,2.017 2.343,1.849 2.757,1.838 L14.704,1.838 L14.704,4.595 C14.704,5.703 15.438,7.352 17.46,7.352 L20.216,7.352 L20.216,22.975 C20.216,23.713 19.714,23.882 19.29,23.894 M20.119,5.514 L17.46,5.514 C16.72,5.514 16.553,5.008 16.542,4.595 L16.542,1.912 C19.113,2.299 19.889,4.291 20.119,5.514 M15.62,0 L2.757,0 C1.649,0 0,0.735 0,2.757 L0,22.975 C0,24.083 0.734,25.732 2.757,25.732 L19.297,25.732 C20.406,25.732 22.054,24.998 22.054,22.975 L22.054,6.435 C22.054,4.209 20.709,0 15.62,0" id="Fill-78"></path>
            </g>
        </g>
    </g>
</svg>
