<?xml version="1.0" encoding="UTF-8"?>
<svg width="19px" height="33px" viewBox="0 0 19 33" version="1.1" xmlns="http://www.w3.org/2000/svg" xmlns:xlink="http://www.w3.org/1999/xlink">
    <g id="Page-1" stroke="none" stroke-width="1" fill="none" fill-rule="evenodd">
        <g id="Artboard" transform="translate(-802.000000, -2577.000000)" fill="#FEFEFE">
            <g id="ic_telecommunication" transform="translate(802.776794, 2577.938953)">
                <path d="M16.1830063,25.1410472 L1.06200627,25.1410472 L1.06200627,4.64204722 C1.06600627,3.48304722 1.63700627,2.39804722 2.58900627,1.73704722 C3.10500627,3.34604722 4.60200627,4.43604722 6.29100627,4.43304722 L10.9690063,4.43304722 C12.6600063,4.43804722 14.1580063,3.34304722 14.6660063,1.73004722 C15.6250063,2.38904722 16.1980063,3.47904722 16.1970076,4.64204722 L16.1830063,25.1410472 Z M16.1830063,26.6040472 C16.1830063,28.5660472 14.5930063,30.1560472 12.6310063,30.1560472 L4.62500627,30.1560472 C2.66300627,30.1560472 1.07300627,28.5660472 1.07300627,26.6040472 L1.07300627,26.2280472 L16.1940063,26.2280472 L16.1830063,26.6040472 Z M12.6310063,1.06604722 C12.7920063,1.06804722 12.9520063,1.08104722 13.1110063,1.10504722 L13.2450063,1.13704722 C13.3770063,1.15904722 13.5080063,1.18904722 13.6360063,1.22504722 L13.7000063,1.24304722 C13.5730063,1.72904722 13.3190063,2.17304722 12.9650063,2.52904722 C12.4400063,3.06004722 11.7230063,3.35704722 10.9760063,3.35304722 L6.28700627,3.35304722 C5.00300627,3.35704722 3.88000627,2.48804722 3.56300627,1.24304722 L3.61200627,1.24304722 C3.74700627,1.20304722 3.88200627,1.17104722 4.01700627,1.14704722 L4.14200627,1.14704722 C4.30100627,1.10904722 4.46200627,1.08204722 4.62500627,1.06604722 L12.6310063,1.06604722 Z M14.5280063,0.412047217 C13.9330063,0.138047217 13.2860063,-0.00195278334 12.6310063,-7.10542736e-15 L4.62500627,-7.10542736e-15 C3.97400627,-0.00295278334 3.33000627,0.137047217 2.73900627,0.408047217 C1.07000627,1.15204722 -0.00299372546,2.80904722 1.24344979e-14,4.63504722 L1.24344979e-14,26.6150472 C0.00200627454,29.1710472 2.06900627,31.2460472 4.62500627,31.2580472 L12.6310063,31.2580472 C15.1930063,31.2540472 17.2680063,29.1770472 17.2700174,26.6150472 L17.2700174,4.64204722 C17.2740063,2.81404722 16.1990063,1.15504722 14.5280063,0.412047217 L14.5280063,0.412047217 Z" id="Fill-73"></path>
                <path d="M8.62790627,27.6238472 C8.94790627,27.6238472 9.20690627,27.8828472 9.20690627,28.2028472 C9.20690627,28.5228472 8.94790627,28.7818472 8.62790627,28.7818472 C8.30790627,28.7818472 8.04890627,28.5228472 8.04890627,28.2028472 C8.04890627,27.8828472 8.30790627,27.6238472 8.62790627,27.6238472" id="Fill-75"></path>
            </g>
        </g>
    </g>
</svg>
