<?xml version="1.0" encoding="UTF-8"?>
<svg width="38px" height="27px" viewBox="0 0 38 27" version="1.1" xmlns="http://www.w3.org/2000/svg" xmlns:xlink="http://www.w3.org/1999/xlink">
    <g id="Page-1" stroke="none" stroke-width="1" fill="none" fill-rule="evenodd">
        <g id="Artboard" transform="translate(-1074.000000, -2389.000000)" fill="#FEFEFE">
            <g id="ic_travel" transform="translate(1074.926676, 2389.794500)">
                <path d="M17.4402244,26.081 C10.2342244,26.081 4.39922437,20.246 4.39922437,13.04 C4.39922437,5.835 10.2342244,1.13686838e-13 17.4402244,1.13686838e-13 C20.4462244,1.13686838e-13 23.4082244,1.06 25.7512244,2.961 C27.2092244,4.155 28.4032244,5.702 29.1992244,7.382 C29.3762244,7.691 29.1992244,8.089 28.8892244,8.266 C28.5802244,8.443 28.1822244,8.266 28.0052244,7.957 C27.2542244,6.454 26.1932244,5.083 24.9112244,3.978 C22.8332244,2.254 20.1812244,1.281 17.4402244,1.281 C10.9862244,1.281 5.72522437,6.542 5.72522437,12.996 C5.72522437,19.45 10.9862244,24.755 17.4402244,24.755 C21.9932244,24.755 26.1492244,22.102 28.0942244,17.947 C28.2262244,17.593 28.6242244,17.461 28.9782244,17.638 C29.3312244,17.77 29.4642244,18.168 29.2872244,18.522 C27.1652244,23.119 22.5242244,26.081 17.4402244,26.081" id="Fill-60"></path>
                <path d="M7.58232437,21.4836 C3.69232437,21.4836 0.951324372,20.4226 0.200324372,18.4336 C-0.595675628,16.2676 0.995324372,13.4826 4.70932437,10.6976 C5.01832437,10.4766 5.41632437,10.5206 5.63732437,10.8296 C5.85832437,11.1396 5.81432437,11.5376 5.50432437,11.7586 C2.41032437,14.1016 0.907324372,16.4446 1.43732437,17.9916 C2.32132437,20.3786 8.42232437,21.2186 17.1753244,18.5216 C17.5283244,18.4336 17.8823244,18.6106 18.0153244,18.9636 C18.1033244,19.3176 17.9263244,19.6716 17.5723244,19.8036 C13.8593244,20.9536 10.4113244,21.4836 7.58232437,21.4836" id="Fill-62"></path>
                <path d="M34.0616244,6.763 C33.7966244,6.763 33.5316244,6.586 33.4426244,6.321 C32.8676244,4.774 30.2156244,3.978 26.3256244,4.155 L25.3086244,4.155 C24.9556244,4.155 24.6456244,3.845 24.6456244,3.492 C24.6456244,3.138 24.9556244,2.829 25.3086244,2.829 L26.2816244,2.829 C30.8786244,2.608 33.8846244,3.669 34.6806244,5.879 C34.8136244,6.233 34.6366244,6.586 34.2826244,6.719 C34.1946244,6.763 34.1496244,6.763 34.0616244,6.763" id="Fill-64"></path>
                <path d="M17.4402244,19.7154 C17.3522244,19.7154 17.2632244,19.7154 17.1752244,19.6714 L13.9482244,18.1684 C13.5942244,18.0354 13.4612244,17.6374 13.6382244,17.2844 C13.8152244,16.9304 14.1692244,16.7974 14.5222244,16.9744 L17.7492244,18.4774 C18.1032244,18.6104 18.2362244,19.0084 18.0592244,19.3614 C17.9262244,19.5824 17.7052244,19.7154 17.4402244,19.7154" id="Fill-66"></path>
                <path d="M15.9371244,22.9424 C15.8491244,22.9424 15.7601244,22.9424 15.6721244,22.8984 C15.3181244,22.7654 15.1861244,22.3674 15.3621244,22.0144 L16.8651244,18.7874 C17.0421244,18.4334 17.3961244,18.3004 17.7491244,18.4774 C18.1031244,18.6104 18.2361244,19.0084 18.0591244,19.3614 L16.5561244,22.5444 C16.4231244,22.8094 16.2021244,22.9424 15.9371244,22.9424" id="Fill-68"></path>
                <path d="M18.7664244,15.8253 L21.2424244,16.9303 L33.4874244,11.3603 C34.1504244,11.0513 34.9904244,10.6973 35.0784244,10.4763 C35.0784244,10.4763 35.0784244,10.4323 35.0344244,10.3883 C34.9454244,10.2553 34.2824244,10.0343 33.4424244,10.0343 C33.1334244,10.0343 32.9564244,10.0783 32.8684244,10.1223 L28.0054244,12.3333 C27.7844244,12.4213 27.5194244,12.4213 27.2984244,12.2443 C24.8224244,10.2553 23.1424244,9.8573 22.1704244,9.8573 C21.9934244,9.8573 21.8164244,9.8573 21.6394244,9.9013 L24.5134244,12.9523 C24.6454244,13.0843 24.7344244,13.3053 24.6904244,13.4823 C24.6454244,13.6593 24.5574244,13.8363 24.3804244,13.9683 L21.6394244,15.6483 C21.5514244,15.6923 21.4184244,15.7373 21.3304244,15.7373 L18.7664244,15.8253 Z M21.2424244,18.3453 C21.1534244,18.3453 21.0654244,18.3453 20.9764244,18.3013 L15.6724244,15.8693 C15.4064244,15.7373 15.2304244,15.4273 15.3184244,15.1183 C15.4064244,14.8083 15.6274244,14.5873 15.9374244,14.5873 L21.1974244,14.4103 L23.0984244,13.2613 L20.1364244,10.0783 C20.0044244,9.9463 19.9604244,9.7693 19.9604244,9.5923 C19.9604244,9.4153 20.0484244,9.2383 20.1814244,9.1063 C20.2694244,9.0613 20.9324244,8.4873 22.2584244,8.4873 C23.8944244,8.4873 25.7954244,9.3273 27.9174244,10.9183 L32.4264244,8.8403 C32.6914244,8.7083 33.0894244,8.6643 33.5314244,8.6643 C34.3714244,8.6643 35.9184244,8.8853 36.3164244,9.8133 C36.4934244,10.2113 36.6694244,10.9183 35.8744244,11.5813 C35.4764244,11.8913 34.8574244,12.2003 34.1054244,12.5543 L21.5074244,18.3013 C21.4184244,18.3453 21.3304244,18.3453 21.2424244,18.3453 L21.2424244,18.3453 Z" id="Fill-70"></path>
            </g>
        </g>
    </g>
</svg>
